<svg width="320" height="38" viewBox="0 0 320 38" fill="none" xmlns="http://www.w3.org/2000/svg">
<g clip-path="url(#clip0_218_963)">
<path d="M14 5C6.2825 5 0 11.2802 0 19C0 26.7198 6.2825 33 14 33C21.7175 33 28 26.7198 28 19C28 11.2802 21.7233 5 14 5ZM14 31.5011C7.09333 31.5011 1.49333 25.9022 1.49333 19C1.49333 12.0978 7.09333 6.49894 14 6.49894C20.9067 6.49894 26.5067 12.0978 26.5067 19C26.5067 25.9022 20.9067 31.5011 14 31.5011Z" fill="#8B191B"/>
<path d="M26.985 19.0001C26.985 26.1689 21.1692 31.981 13.9942 31.981C6.81918 31.981 1.01501 26.1689 1.01501 19.0001C1.01501 11.8312 6.82502 6.01318 14 6.01318C21.175 6.01318 26.9908 11.8253 26.9908 19.0001H26.985Z" fill="#D1C294"/>
<path d="M24.045 24.7943C23.3217 23.8582 22.9075 22.7088 22.9075 21.518C22.9075 21.2158 22.9308 20.9077 22.9892 20.5996C22.9892 20.5996 22.9892 20.5878 22.9892 20.5819C23.2575 19.0711 24.1617 17.7854 25.4217 16.9915C23.9692 16.6775 22.6742 15.7769 21.8983 14.438C21.42 13.6085 21.1867 12.6902 21.1867 11.7719C21.1867 11.2209 21.2742 10.6699 21.4433 10.1426C20.1308 10.8298 18.5675 10.9602 17.115 10.4388C15.6742 9.91152 14.56 8.79768 14 7.41724C13.44 8.79768 12.3258 9.91152 10.8733 10.4388C9.4325 10.9602 7.86917 10.8298 6.5625 10.1426C6.73167 10.6699 6.81917 11.215 6.81917 11.7719C6.81917 12.6961 6.58 13.6263 6.10167 14.4617C5.33167 15.7888 4.03667 16.6893 2.58417 16.9974C3.8325 17.7795 4.73083 19.0533 5.01083 20.5463C5.01083 20.5463 5.02833 20.647 5.02833 20.653C5.075 20.9433 5.09833 21.2336 5.09833 21.518C5.09833 22.7147 4.69 23.8641 3.96667 24.8002C5.43667 24.5988 6.95333 25.0076 8.12583 25.9852L8.16667 26.0207C8.16667 26.0207 8.19583 26.0444 8.2075 26.0563C9.33917 27.0398 9.98083 28.4439 10.0392 29.9014C11.0367 28.7994 12.4658 28.1299 14.0117 28.1299C15.5458 28.1299 16.9692 28.7935 17.9667 29.9014C18.025 28.4143 18.69 26.9864 19.8742 25.997C21.0525 25.0135 22.5692 24.6047 24.0392 24.8002L24.045 24.7943Z" fill="#8B191B"/>
<path d="M22.5517 18.9999C22.5517 23.716 18.725 27.5374 14.0117 27.5374C9.29835 27.5374 5.47168 23.716 5.47168 18.9999C5.47168 14.2839 9.29835 10.4565 14.0117 10.4565C18.725 10.4565 22.5517 14.278 22.5517 18.9999Z" fill="#D0C192"/>
<path d="M4.65499 21.2692C4.65499 21.2041 4.64332 21.1389 4.63749 21.0737C3.44749 22.2705 2.67749 23.6806 2.67749 24.6878C2.67749 24.8537 2.70665 25.0018 2.74749 25.144C3.87332 24.273 4.64915 22.6971 4.64915 21.2692H4.65499ZM3.03915 25.6002C3.75082 26.3526 5.64082 26.5363 7.53665 26.0386C6.29415 25.2388 4.40999 25.0551 3.03915 25.6002ZM20.4692 26.0445C22.365 26.5422 24.255 26.3585 24.9667 25.6061C23.5958 25.061 21.7117 25.2447 20.4692 26.0445ZM23.3567 21.2633C23.3567 22.6911 24.1325 24.273 25.2583 25.144C25.2992 25.0018 25.3283 24.8537 25.3283 24.6878C25.3283 23.6806 24.5642 22.2705 23.3683 21.0737C23.3683 21.1389 23.3508 21.1981 23.3508 21.2633H23.3567ZM16.87 9.84054C16.3508 7.90909 15.2483 6.32128 14.2625 6.07837C14.4667 7.58324 15.575 9.17105 16.87 9.84054ZM11.1417 9.84054C12.4367 9.16512 13.545 7.58324 13.7492 6.07837C12.7633 6.32128 11.6608 7.90909 11.1417 9.84054ZM8.15499 27.3302C8.15499 29.0128 8.64499 30.4939 9.39749 30.9975C9.45582 30.7132 9.51415 30.4228 9.51415 30.1148C9.51415 28.8469 9.00082 27.4961 8.20165 26.6192C8.18415 26.8562 8.15499 27.0932 8.15499 27.3302ZM23.52 20.2383C25.3458 19.3911 26.6992 18.0581 26.7575 17.039C25.3167 17.4952 23.9575 18.852 23.52 20.2383ZM10.3425 10.1249C8.74415 9.02293 6.91832 8.55488 5.99665 9.02293C7.09332 10.0124 8.89582 10.4626 10.3425 10.1249ZM6.28832 11.9853C6.28832 11.0373 6.04332 10.0775 5.58249 9.34879C5.31999 9.69834 5.17999 10.2256 5.17999 10.8714C5.17999 11.7542 5.43665 12.8206 5.90332 13.8456C6.13665 13.2828 6.28249 12.6548 6.28249 11.9912L6.28832 11.9853ZM9.89332 31.1753C10.9083 31.2997 12.4483 30.2214 13.5917 28.5862C12.1392 28.7639 10.5992 29.8422 9.89332 31.1753ZM26.6642 16.5473C26.2675 15.5993 24.5058 14.7699 22.505 14.598C23.3917 15.7711 25.1533 16.6065 26.6642 16.5473ZM1.24832 17.039C1.30665 18.0581 2.65999 19.3911 4.48582 20.2383C4.04832 18.852 2.68915 17.4952 1.24832 17.039ZM18.4858 30.1088C18.4858 30.4169 18.5442 30.7072 18.6025 30.9975C19.355 30.4939 19.845 29.0128 19.845 27.3302C19.845 27.0991 19.8158 26.8562 19.7983 26.6192C18.9933 27.4961 18.4858 28.8469 18.4858 30.1088ZM22.0092 9.02293C21.0817 8.56081 19.2558 9.02293 17.6633 10.1249C19.0983 10.4508 20.9183 9.98865 22.0092 9.02293ZM5.50665 14.598C3.50582 14.7758 1.74415 15.5993 1.34749 16.5473C2.85832 16.6065 4.61415 15.7711 5.50665 14.598ZM14.4142 28.5862C15.5575 30.2273 17.0975 31.3056 18.1125 31.1812C17.4125 29.8422 15.8667 28.7699 14.4142 28.5862ZM22.1025 13.8397C22.5692 12.8147 22.8258 11.7483 22.8258 10.8714C22.8258 10.2256 22.6858 9.69834 22.4233 9.34879C21.9683 10.0834 21.7175 11.0373 21.7175 11.9853C21.7175 12.6488 21.8633 13.2768 22.1025 13.8397Z" fill="#0A515D"/>
<path d="M10.5875 15.2141C9.2225 14.8112 7.8575 14.6394 6.63834 14.675C7.21 15.7888 8.05 16.9263 9.1 17.9513L13.1017 18.4786L10.5817 15.2141H10.5875Z" fill="#0A515D"/>
<path d="M8.95999 18.2949C7.64749 18.8696 6.49249 19.6161 5.57666 20.4278C6.73166 20.9136 8.10249 21.2454 9.56083 21.3521L12.985 19.1777L8.95999 18.2949Z" fill="#0A515D"/>
<path d="M9.67165 21.7016C9.03582 22.9814 8.62748 24.3026 8.45248 25.5112C9.64832 25.138 10.92 24.5099 12.11 23.6449L13.335 19.7761L9.66582 21.6957L9.67165 21.7016Z" fill="#0A515D"/>
<path d="M19.0458 17.9216C20.0608 16.95 20.8775 15.8658 21.4491 14.8053C20.1833 14.7401 18.7541 14.906 17.3308 15.3148L14.8983 18.4726L19.0458 17.9216Z" fill="#0A515D"/>
<path d="M17.1617 14.9474C17.3133 13.5492 17.2433 12.1924 16.9983 11.0134C15.995 11.7777 15.0091 12.8086 14.1808 14.035L14.3558 18.0223L17.1617 14.9474Z" fill="#0A515D"/>
<path d="M13.8192 13.887C13.0317 12.708 12.1042 11.7126 11.1533 10.9602C10.8792 12.1866 10.7858 13.6026 10.9375 15.066L13.6558 18.0283L13.825 13.8929L13.8192 13.887Z" fill="#0A515D"/>
<path d="M22.4117 20.57C21.4783 19.711 20.2825 18.9171 18.9233 18.3127L15.0267 19.1718L18.5675 21.4173C19.9733 21.3225 21.2975 21.0144 22.4175 20.57H22.4117Z" fill="#0A515D"/>
<path d="M15.9308 23.7634C17.0741 24.6047 18.2933 25.2268 19.4425 25.6059C19.2966 24.4862 18.4391 22.2644 18.1825 21.6127L14.665 19.782L15.9308 23.7634Z" fill="#0A515D"/>
<path d="M12.4192 23.87C12.7517 25.2564 13.2883 26.5243 13.93 27.5611C14.6125 26.5006 15.1842 25.1971 15.54 23.7634L14 20.0249L12.4192 23.87Z" fill="#0A515D"/>
<path d="M4.64917 18.9999C4.64917 24.1603 8.84917 28.3609 14.0117 28.3609C19.1742 28.3609 23.3742 24.1603 23.3742 18.9999C23.3742 13.8395 19.1742 9.63892 14.0117 9.63892C8.84917 9.63892 4.64917 13.8395 4.64917 18.9999ZM5.04 18.9999C5.04 14.0528 9.065 10.0299 14.0117 10.0299C18.9583 10.0299 22.9833 14.0528 22.9833 18.9999C22.9833 23.947 18.9583 27.9699 14.0117 27.9699C9.065 27.9699 5.04 23.947 5.04 18.9999Z" fill="#8B191B"/>
<path d="M15.9367 18.9939C15.9367 20.0604 15.0733 20.9254 14.0058 20.9254C12.9383 20.9254 12.075 20.0604 12.075 18.9939C12.075 17.9275 12.9442 17.0625 14.0058 17.0625C15.0675 17.0625 15.9367 17.9275 15.9367 18.9939Z" fill="#8B191B"/>
<path d="M11.9817 18.994C11.9817 20.1138 12.8917 21.0202 14.0117 21.0202C15.1317 21.0202 16.0417 20.1078 16.0417 18.994C16.0417 17.8802 15.1317 16.9678 14.0117 16.9678C12.8917 16.9678 11.9817 17.8742 11.9817 18.994ZM12.1742 18.994C12.1742 17.9809 12.9967 17.1633 14.0058 17.1633C15.015 17.1633 15.8375 17.9868 15.8375 18.994C15.8375 20.0012 15.015 20.8307 14.0058 20.8307C12.9967 20.8307 12.1742 20.0071 12.1742 18.994Z" fill="#D1C294"/>
</g>
<path d="M35.3125 7.25H43.3594C45.0885 7.25 46.5625 7.51042 47.7812 8.03125C49 8.55208 49.9323 9.32292 50.5781 10.3438C51.2344 11.3542 51.5625 12.6042 51.5625 14.0938C51.5625 15.2292 51.3542 16.2292 50.9375 17.0938C50.5208 17.9583 49.9323 18.6875 49.1719 19.2812C48.4115 19.8646 47.5052 20.3177 46.4531 20.6406L45.2656 21.2188H38.0312L38 18.1094H43.4219C44.3594 18.1094 45.1406 17.9427 45.7656 17.6094C46.3906 17.276 46.8594 16.8229 47.1719 16.25C47.4948 15.6667 47.6562 15.0104 47.6562 14.2812C47.6562 13.4896 47.5 12.8021 47.1875 12.2188C46.8854 11.625 46.4167 11.1719 45.7812 10.8594C45.1458 10.5365 44.3385 10.375 43.3594 10.375H39.2344V30H35.3125V7.25ZM48.2969 30L42.9531 19.7812L47.0625 19.7656L52.4844 29.7969V30H48.2969ZM59.0312 11.7969V30H55.25V11.7969H59.0312ZM70.5312 15.5312L65.0625 30H61.25L68.5781 11.7969H71.1094L70.5312 15.5312ZM75.5781 30L70.0781 15.5L69.5 11.7969H72.0781L79.3906 30H75.5781ZM75.3438 23.25V26.0781H64.9375V23.25H75.3438ZM93.8125 27.0156V30H83.9531V27.0156H93.8125ZM85.1406 11.7969V30H81.375V11.7969H85.1406ZM103.641 11.7969V30H99.875V11.7969H103.641ZM109.703 11.7969V14.7969H93.8906V11.7969H109.703ZM128.031 20.4688V21.3438C128.031 22.7292 127.833 23.9688 127.438 25.0625C127.042 26.1562 126.479 27.0938 125.75 27.875C125.031 28.6458 124.167 29.2344 123.156 29.6406C122.146 30.0469 121.031 30.25 119.812 30.25C118.594 30.25 117.479 30.0469 116.469 29.6406C115.458 29.2344 114.583 28.6458 113.844 27.875C113.104 27.0938 112.531 26.1562 112.125 25.0625C111.729 23.9688 111.531 22.7292 111.531 21.3438V20.4688C111.531 19.0833 111.729 17.8438 112.125 16.75C112.531 15.6562 113.099 14.7188 113.828 13.9375C114.557 13.1562 115.427 12.5625 116.438 12.1562C117.448 11.75 118.562 11.5469 119.781 11.5469C121.01 11.5469 122.125 11.75 123.125 12.1562C124.135 12.5625 125.005 13.1562 125.734 13.9375C126.474 14.7188 127.042 15.6562 127.438 16.75C127.833 17.8438 128.031 19.0833 128.031 20.4688ZM124.266 21.3438V20.4375C124.266 19.4896 124.167 18.651 123.969 17.9219C123.771 17.1927 123.474 16.5781 123.078 16.0781C122.693 15.5781 122.224 15.1979 121.672 14.9375C121.12 14.6771 120.49 14.5469 119.781 14.5469C119.083 14.5469 118.453 14.6771 117.891 14.9375C117.339 15.1979 116.87 15.5781 116.484 16.0781C116.109 16.5781 115.818 17.1927 115.609 17.9219C115.411 18.651 115.312 19.4896 115.312 20.4375V21.3438C115.312 22.2812 115.411 23.1198 115.609 23.8594C115.818 24.5885 116.115 25.2083 116.5 25.7188C116.896 26.2188 117.37 26.6042 117.922 26.875C118.484 27.1354 119.115 27.2656 119.812 27.2656C120.521 27.2656 121.146 27.1354 121.688 26.875C122.24 26.6042 122.708 26.2188 123.094 25.7188C123.479 25.2083 123.771 24.5885 123.969 23.8594C124.167 23.1198 124.266 22.2812 124.266 21.3438Z" fill="#2E2D29"/>
<line x1="140.5" y1="5" x2="140.5" y2="33" stroke="black"/>
<path d="M159.109 30H153.953L153.984 28.3594H159.109C160.745 28.3594 162.151 27.9948 163.328 27.2656C164.516 26.526 165.432 25.5052 166.078 24.2031C166.724 22.901 167.047 21.3906 167.047 19.6719V17.5469C167.047 16.2344 166.859 15.0469 166.484 13.9844C166.12 12.9219 165.594 12.0156 164.906 11.2656C164.219 10.5052 163.396 9.92188 162.438 9.51562C161.49 9.10938 160.427 8.90625 159.25 8.90625H153.859V7.25H159.25C160.667 7.25 161.964 7.49479 163.141 7.98438C164.328 8.46354 165.354 9.16146 166.219 10.0781C167.094 10.9844 167.766 12.0729 168.234 13.3438C168.714 14.6146 168.953 16.0312 168.953 17.5938V19.6719C168.953 21.2344 168.714 22.651 168.234 23.9219C167.766 25.1927 167.094 26.2812 166.219 27.1875C165.344 28.0938 164.307 28.7917 163.109 29.2812C161.911 29.7604 160.578 30 159.109 30ZM154.812 7.25V30H152.891V7.25H154.812ZM183.703 26.9688V18.25C183.703 17.4479 183.536 16.7552 183.203 16.1719C182.87 15.5885 182.38 15.1406 181.734 14.8281C181.089 14.5156 180.292 14.3594 179.344 14.3594C178.469 14.3594 177.688 14.5156 177 14.8281C176.323 15.1302 175.786 15.5417 175.391 16.0625C175.005 16.5729 174.812 17.1406 174.812 17.7656L172.938 17.75C172.938 17.1146 173.094 16.5 173.406 15.9062C173.719 15.3125 174.161 14.7812 174.734 14.3125C175.307 13.8438 175.99 13.474 176.781 13.2031C177.583 12.9219 178.464 12.7812 179.422 12.7812C180.63 12.7812 181.693 12.9844 182.609 13.3906C183.536 13.7969 184.26 14.4062 184.781 15.2188C185.302 16.0312 185.562 17.0521 185.562 18.2812V26.4531C185.562 27.0365 185.604 27.6406 185.688 28.2656C185.781 28.8906 185.911 29.4062 186.078 29.8125V30H184.094C183.969 29.625 183.87 29.1562 183.797 28.5938C183.734 28.0208 183.703 27.4792 183.703 26.9688ZM184.141 20.1562L184.172 21.5938H180.5C179.542 21.5938 178.682 21.6823 177.922 21.8594C177.172 22.026 176.536 22.276 176.016 22.6094C175.495 22.9323 175.094 23.3229 174.812 23.7812C174.542 24.2396 174.406 24.7604 174.406 25.3438C174.406 25.9479 174.557 26.5 174.859 27C175.172 27.5 175.609 27.901 176.172 28.2031C176.745 28.4948 177.422 28.6406 178.203 28.6406C179.245 28.6406 180.161 28.4479 180.953 28.0625C181.755 27.6771 182.417 27.1719 182.938 26.5469C183.458 25.9219 183.807 25.2396 183.984 24.5L184.797 25.5781C184.661 26.099 184.411 26.6354 184.047 27.1875C183.693 27.7292 183.229 28.2396 182.656 28.7188C182.083 29.1875 181.406 29.5729 180.625 29.875C179.854 30.1667 178.979 30.3125 178 30.3125C176.896 30.3125 175.932 30.1042 175.109 29.6875C174.297 29.2708 173.661 28.7031 173.203 27.9844C172.755 27.2552 172.531 26.4323 172.531 25.5156C172.531 24.6823 172.708 23.9375 173.062 23.2812C173.417 22.6146 173.927 22.0521 174.594 21.5938C175.271 21.125 176.083 20.7708 177.031 20.5312C177.99 20.2812 179.062 20.1562 180.25 20.1562H184.141ZM196.969 13.0938V14.625H188.5V13.0938H196.969ZM191.609 8.75H193.469V25.8906C193.469 26.6719 193.573 27.2604 193.781 27.6562C193.99 28.0521 194.26 28.3177 194.594 28.4531C194.927 28.5885 195.286 28.6562 195.672 28.6562C195.953 28.6562 196.224 28.6406 196.484 28.6094C196.745 28.5677 196.979 28.526 197.188 28.4844L197.266 30.0625C197.036 30.1354 196.74 30.1927 196.375 30.2344C196.01 30.2865 195.646 30.3125 195.281 30.3125C194.562 30.3125 193.927 30.1823 193.375 29.9219C192.823 29.651 192.391 29.1927 192.078 28.5469C191.766 27.8906 191.609 27 191.609 25.875V8.75ZM211.172 26.9688V18.25C211.172 17.4479 211.005 16.7552 210.672 16.1719C210.339 15.5885 209.849 15.1406 209.203 14.8281C208.557 14.5156 207.76 14.3594 206.812 14.3594C205.938 14.3594 205.156 14.5156 204.469 14.8281C203.792 15.1302 203.255 15.5417 202.859 16.0625C202.474 16.5729 202.281 17.1406 202.281 17.7656L200.406 17.75C200.406 17.1146 200.562 16.5 200.875 15.9062C201.188 15.3125 201.63 14.7812 202.203 14.3125C202.776 13.8438 203.458 13.474 204.25 13.2031C205.052 12.9219 205.932 12.7812 206.891 12.7812C208.099 12.7812 209.161 12.9844 210.078 13.3906C211.005 13.7969 211.729 14.4062 212.25 15.2188C212.771 16.0312 213.031 17.0521 213.031 18.2812V26.4531C213.031 27.0365 213.073 27.6406 213.156 28.2656C213.25 28.8906 213.38 29.4062 213.547 29.8125V30H211.562C211.438 29.625 211.339 29.1562 211.266 28.5938C211.203 28.0208 211.172 27.4792 211.172 26.9688ZM211.609 20.1562L211.641 21.5938H207.969C207.01 21.5938 206.151 21.6823 205.391 21.8594C204.641 22.026 204.005 22.276 203.484 22.6094C202.964 22.9323 202.562 23.3229 202.281 23.7812C202.01 24.2396 201.875 24.7604 201.875 25.3438C201.875 25.9479 202.026 26.5 202.328 27C202.641 27.5 203.078 27.901 203.641 28.2031C204.214 28.4948 204.891 28.6406 205.672 28.6406C206.714 28.6406 207.63 28.4479 208.422 28.0625C209.224 27.6771 209.885 27.1719 210.406 26.5469C210.927 25.9219 211.276 25.2396 211.453 24.5L212.266 25.5781C212.13 26.099 211.88 26.6354 211.516 27.1875C211.161 27.7292 210.698 28.2396 210.125 28.7188C209.552 29.1875 208.875 29.5729 208.094 29.875C207.323 30.1667 206.448 30.3125 205.469 30.3125C204.365 30.3125 203.401 30.1042 202.578 29.6875C201.766 29.2708 201.13 28.7031 200.672 27.9844C200.224 27.2552 200 26.4323 200 25.5156C200 24.6823 200.177 23.9375 200.531 23.2812C200.885 22.6146 201.396 22.0521 202.062 21.5938C202.74 21.125 203.552 20.7708 204.5 20.5312C205.458 20.2812 206.531 20.1562 207.719 20.1562H211.609ZM237.547 28.2031L242.75 32.7656L241.438 33.9844L236.266 29.4688L237.547 28.2031ZM243.031 17.4062V19.8438C243.031 21.4375 242.823 22.8802 242.406 24.1719C241.99 25.4531 241.396 26.5521 240.625 27.4688C239.854 28.3854 238.922 29.0885 237.828 29.5781C236.745 30.0677 235.531 30.3125 234.188 30.3125C232.865 30.3125 231.656 30.0677 230.562 29.5781C229.479 29.0885 228.542 28.3854 227.75 27.4688C226.969 26.5521 226.365 25.4531 225.938 24.1719C225.521 22.8802 225.312 21.4375 225.312 19.8438V17.4062C225.312 15.8125 225.521 14.375 225.938 13.0938C226.365 11.8021 226.969 10.6979 227.75 9.78125C228.531 8.86458 229.464 8.16146 230.547 7.67188C231.63 7.18229 232.833 6.9375 234.156 6.9375C235.5 6.9375 236.714 7.18229 237.797 7.67188C238.891 8.16146 239.828 8.86458 240.609 9.78125C241.391 10.6979 241.99 11.8021 242.406 13.0938C242.823 14.375 243.031 15.8125 243.031 17.4062ZM241.125 19.8438V17.375C241.125 16.0312 240.969 14.8229 240.656 13.75C240.344 12.6771 239.885 11.7604 239.281 11C238.688 10.2396 237.958 9.65625 237.094 9.25C236.24 8.84375 235.26 8.64062 234.156 8.64062C233.083 8.64062 232.12 8.84375 231.266 9.25C230.411 9.65625 229.682 10.2396 229.078 11C228.474 11.7604 228.01 12.6771 227.688 13.75C227.375 14.8229 227.219 16.0312 227.219 17.375V19.8438C227.219 21.1979 227.38 22.4167 227.703 23.5C228.026 24.5729 228.49 25.4948 229.094 26.2656C229.698 27.026 230.427 27.6094 231.281 28.0156C232.146 28.4219 233.115 28.625 234.188 28.625C235.292 28.625 236.271 28.4219 237.125 28.0156C237.99 27.6094 238.719 27.026 239.312 26.2656C239.906 25.4948 240.354 24.5729 240.656 23.5C240.969 22.4167 241.125 21.1979 241.125 19.8438ZM258.344 26.0938V13.0938H260.219V30H258.422L258.344 26.0938ZM258.688 22.9688L259.656 22.9375C259.656 24 259.531 24.9792 259.281 25.875C259.031 26.7708 258.641 27.5521 258.109 28.2188C257.578 28.8854 256.891 29.401 256.047 29.7656C255.203 30.1302 254.188 30.3125 253 30.3125C252.177 30.3125 251.422 30.1979 250.734 29.9688C250.057 29.7292 249.474 29.3542 248.984 28.8438C248.495 28.3333 248.115 27.6719 247.844 26.8594C247.583 26.0469 247.453 25.0625 247.453 23.9062V13.0938H249.312V23.9375C249.312 24.8438 249.411 25.599 249.609 26.2031C249.818 26.8073 250.099 27.2917 250.453 27.6562C250.818 28.0208 251.234 28.2812 251.703 28.4375C252.172 28.5938 252.677 28.6719 253.219 28.6719C254.594 28.6719 255.677 28.4062 256.469 27.875C257.271 27.3438 257.839 26.6458 258.172 25.7812C258.516 24.9062 258.688 23.9688 258.688 22.9688ZM275.391 26.9688V18.25C275.391 17.4479 275.224 16.7552 274.891 16.1719C274.557 15.5885 274.068 15.1406 273.422 14.8281C272.776 14.5156 271.979 14.3594 271.031 14.3594C270.156 14.3594 269.375 14.5156 268.688 14.8281C268.01 15.1302 267.474 15.5417 267.078 16.0625C266.693 16.5729 266.5 17.1406 266.5 17.7656L264.625 17.75C264.625 17.1146 264.781 16.5 265.094 15.9062C265.406 15.3125 265.849 14.7812 266.422 14.3125C266.995 13.8438 267.677 13.474 268.469 13.2031C269.271 12.9219 270.151 12.7812 271.109 12.7812C272.318 12.7812 273.38 12.9844 274.297 13.3906C275.224 13.7969 275.948 14.4062 276.469 15.2188C276.99 16.0312 277.25 17.0521 277.25 18.2812V26.4531C277.25 27.0365 277.292 27.6406 277.375 28.2656C277.469 28.8906 277.599 29.4062 277.766 29.8125V30H275.781C275.656 29.625 275.557 29.1562 275.484 28.5938C275.422 28.0208 275.391 27.4792 275.391 26.9688ZM275.828 20.1562L275.859 21.5938H272.188C271.229 21.5938 270.37 21.6823 269.609 21.8594C268.859 22.026 268.224 22.276 267.703 22.6094C267.182 22.9323 266.781 23.3229 266.5 23.7812C266.229 24.2396 266.094 24.7604 266.094 25.3438C266.094 25.9479 266.245 26.5 266.547 27C266.859 27.5 267.297 27.901 267.859 28.2031C268.432 28.4948 269.109 28.6406 269.891 28.6406C270.932 28.6406 271.849 28.4479 272.641 28.0625C273.443 27.6771 274.104 27.1719 274.625 26.5469C275.146 25.9219 275.495 25.2396 275.672 24.5L276.484 25.5781C276.349 26.099 276.099 26.6354 275.734 27.1875C275.38 27.7292 274.917 28.2396 274.344 28.7188C273.771 29.1875 273.094 29.5729 272.312 29.875C271.542 30.1667 270.667 30.3125 269.688 30.3125C268.583 30.3125 267.62 30.1042 266.797 29.6875C265.984 29.2708 265.349 28.7031 264.891 27.9844C264.443 27.2552 264.219 26.4323 264.219 25.5156C264.219 24.6823 264.396 23.9375 264.75 23.2812C265.104 22.6146 265.615 22.0521 266.281 21.5938C266.958 21.125 267.771 20.7708 268.719 20.5312C269.677 20.2812 270.75 20.1562 271.938 20.1562H275.828ZM284.344 6V30H282.484V6H284.344ZM291.531 13.0938V30H289.672V13.0938H291.531ZM289.344 8.20312C289.344 7.84896 289.453 7.55208 289.672 7.3125C289.901 7.0625 290.214 6.9375 290.609 6.9375C291.005 6.9375 291.318 7.0625 291.547 7.3125C291.786 7.55208 291.906 7.84896 291.906 8.20312C291.906 8.54688 291.786 8.84375 291.547 9.09375C291.318 9.33333 291.005 9.45312 290.609 9.45312C290.214 9.45312 289.901 9.33333 289.672 9.09375C289.453 8.84375 289.344 8.54688 289.344 8.20312ZM303.031 13.0938V14.625H294.562V13.0938H303.031ZM297.672 8.75H299.531V25.8906C299.531 26.6719 299.635 27.2604 299.844 27.6562C300.052 28.0521 300.323 28.3177 300.656 28.4531C300.99 28.5885 301.349 28.6562 301.734 28.6562C302.016 28.6562 302.286 28.6406 302.547 28.6094C302.807 28.5677 303.042 28.526 303.25 28.4844L303.328 30.0625C303.099 30.1354 302.802 30.1927 302.438 30.2344C302.073 30.2865 301.708 30.3125 301.344 30.3125C300.625 30.3125 299.99 30.1823 299.438 29.9219C298.885 29.651 298.453 29.1927 298.141 28.5469C297.828 27.8906 297.672 27 297.672 25.875V8.75ZM311.969 28.3125L317.234 13.0938H319.25L312.094 32.7188C311.948 33.1042 311.76 33.5312 311.531 34C311.312 34.4688 311.021 34.9167 310.656 35.3438C310.302 35.7812 309.854 36.1354 309.312 36.4062C308.781 36.6875 308.13 36.8281 307.359 36.8281C307.161 36.8281 306.906 36.8021 306.594 36.75C306.292 36.7083 306.073 36.6667 305.938 36.625L305.922 35.0469C306.036 35.0781 306.203 35.1042 306.422 35.125C306.641 35.1458 306.792 35.1562 306.875 35.1562C307.552 35.1562 308.12 35.0417 308.578 34.8125C309.047 34.5833 309.438 34.2396 309.75 33.7812C310.062 33.3333 310.339 32.7708 310.578 32.0938L311.969 28.3125ZM307.047 13.0938L312.438 27.6094L312.938 29.5625L311.578 30.3281L305.016 13.0938H307.047Z" fill="black"/>
<defs>
<clipPath id="clip0_218_963">
<rect width="28" height="28" fill="white" transform="translate(0 5)"/>
</clipPath>
</defs>
</svg>
