<svg width="243" height="38" viewBox="0 0 243 38" fill="none" xmlns="http://www.w3.org/2000/svg">
<g clip-path="url(#clip0_216_50)">
<path d="M13.9884 31.9977C6.77363 31.9977 0.922886 26.1784 0.922886 19.0029C0.922886 11.8275 6.77363 6.00821 13.9884 6.00821C21.2032 6.00821 27.0539 11.8275 27.0539 19.0029C27.0539 26.1784 21.2032 31.9977 13.9884 31.9977ZM14 5C6.28027 5 0 11.2792 0 19.0029C0 26.7267 6.28027 33.0059 14 33.0059C21.7197 33.0059 28 26.7267 28 19.0029C28 11.2792 21.7197 5 14 5Z" fill="#8C191C"/>
<path d="M14.0174 27.5816C9.28693 27.5816 5.45608 23.7433 5.45608 19.0089C5.45608 14.2744 9.28693 10.4361 14.0174 10.4361C18.748 10.4361 22.5788 14.2744 22.5788 19.0089C22.5788 23.7433 18.748 27.5816 14.0174 27.5816ZM22.9909 20.5831C23.2579 19.0678 24.1634 17.7825 25.4229 16.9924C23.966 16.6799 22.6775 15.7779 21.8997 14.4395C21.4237 13.614 21.1858 12.6943 21.1858 11.7745C21.1858 11.2203 21.2728 10.6719 21.4412 10.1413C20.1294 10.8311 18.5622 10.9608 17.1169 10.4361C15.6775 9.90546 14.563 8.79702 14.0058 7.41736C13.4428 8.79702 12.3284 9.91136 10.8773 10.442C9.43784 10.9667 7.87648 10.8311 6.5647 10.1413C6.73303 10.6719 6.82009 11.2144 6.82009 11.7686C6.82009 12.6943 6.58212 13.6199 6.10036 14.4572C5.32839 15.7838 4.03983 16.6858 2.58295 16.9983C3.83087 17.7825 4.73054 19.0501 5.00915 20.5477L5.02656 20.6538C5.073 20.9427 5.09621 21.2316 5.09621 21.5205C5.09621 22.7174 4.68411 23.8671 3.96437 24.7987C5.43286 24.5982 6.94779 25.0051 8.12606 25.9838L8.16669 26.0192C8.16669 26.0192 8.19572 26.0428 8.20732 26.0545C9.33917 27.0392 9.97764 28.4424 10.0357 29.8987C11.034 28.7962 12.4619 28.1299 14.0116 28.1299C15.544 28.1299 16.9718 28.7962 17.9702 29.8987C18.0282 28.4129 18.6957 26.9861 19.8798 25.9897C21.0581 25.0051 22.573 24.5982 24.0473 24.7928C23.3218 23.8612 22.9096 22.7115 22.9096 21.5146C22.9096 21.2081 22.9387 20.9015 22.9909 20.5949C22.9909 20.5949 22.9909 20.5831 22.9909 20.5772V20.5831Z" fill="#8C191C"/>
<path d="M22.1028 13.844C22.5672 12.8181 22.8284 11.7509 22.8284 10.8724C22.8284 10.2297 22.6891 9.69911 22.4279 9.35125C21.9693 10.0823 21.7255 11.0375 21.7255 11.9867C21.7255 12.6471 21.8706 13.278 22.1086 13.844H22.1028ZM14.4121 28.5898C15.5556 30.2289 17.0995 31.3079 18.1095 31.1841C17.4071 29.8457 15.8632 28.7726 14.4121 28.5898ZM5.50829 14.5987C3.51161 14.7755 1.7471 15.601 1.3466 16.5502C2.85572 16.6092 4.61443 15.772 5.50829 14.5987ZM22.0099 9.02107C21.0813 8.55529 19.2587 9.02107 17.6625 10.1295C19.0962 10.4538 20.9187 9.99391 22.0099 9.02107ZM18.4867 30.1169C18.4867 30.4294 18.5448 30.7183 18.6086 31.0072C19.3574 30.5001 19.8507 29.0202 19.8507 27.3399C19.8507 27.1099 19.8217 26.8682 19.8043 26.6265C19.0033 27.505 18.4925 28.8551 18.4925 30.1169H18.4867ZM1.24792 17.0455C1.30597 18.0655 2.65837 19.398 4.48673 20.247C4.05141 18.8615 2.68739 17.5054 1.24792 17.0455ZM26.665 16.5502C26.2645 15.601 24.5058 14.7755 22.5033 14.5987C23.3914 15.772 25.1501 16.6033 26.665 16.5502ZM9.89635 31.1782C10.9121 31.302 12.4502 30.2289 13.5937 28.5839C12.1426 28.7667 10.5987 29.8398 9.89635 31.1782ZM6.28607 11.9867C6.28607 11.0375 6.04229 10.0823 5.58375 9.35125C5.32255 9.69911 5.18325 10.2297 5.18325 10.8724C5.18325 11.7509 5.43864 12.824 5.90879 13.844C6.14096 13.2839 6.29187 12.653 6.29187 11.9867H6.28607ZM10.3433 10.1295C8.7471 9.02107 6.91874 8.56119 5.99585 9.02107C7.09287 10.0057 8.8922 10.4656 10.3433 10.1295ZM23.5191 20.2411C25.3474 19.3921 26.6998 18.0596 26.7579 17.0396C25.3184 17.4936 23.9544 18.8556 23.5191 20.2411ZM8.15506 27.3281C8.15506 29.0143 8.64842 30.4942 9.39718 31.0013C9.45522 30.7124 9.51326 30.4235 9.51326 30.1169C9.51326 28.8492 9.00248 27.4991 8.20149 26.6206C8.18408 26.8564 8.15506 27.0981 8.15506 27.3281ZM11.1443 9.84061C12.4386 9.16847 13.5473 7.58245 13.7504 6.07898C12.7637 6.32071 11.6609 7.90673 11.1443 9.84061ZM16.8673 9.84061C16.3507 7.90673 15.2479 6.32071 14.2612 6.07898C14.4701 7.58245 15.573 9.16847 16.8673 9.84061ZM23.3565 21.267C23.3565 22.6938 24.1343 24.274 25.2604 25.1466C25.301 25.0051 25.33 24.8577 25.33 24.6926C25.33 23.6844 24.5638 22.2752 23.374 21.0783C23.374 21.1432 23.3565 21.2022 23.3565 21.267ZM20.4718 26.0428C22.3698 26.538 24.2562 26.3552 24.9701 25.6006C23.6003 25.0522 21.7139 25.2409 20.4718 26.0428ZM3.04146 25.6065C3.75539 26.3611 5.64179 26.5439 7.5398 26.0428C6.29768 25.2468 4.41127 25.0581 3.04146 25.6065ZM4.65506 21.2729C4.65506 21.2081 4.64345 21.1432 4.63764 21.0783C3.44776 22.2693 2.68159 23.6844 2.68159 24.6926C2.68159 24.8577 2.71061 25.011 2.75124 25.1466C3.87728 24.274 4.65506 22.6997 4.65506 21.2729Z" fill="#8C191C"/>
<path d="M13.1119 18.4781L12.6127 17.8296C12.4792 17.9888 12.369 18.1716 12.2993 18.372L13.1177 18.4781H13.1119Z" fill="#8C191C"/>
<path d="M12.4851 17.6705L10.5871 15.2118C9.21725 14.8109 7.85324 14.6399 6.64014 14.6753C7.21476 15.7896 8.05058 16.9276 9.10117 17.9535L12.0904 18.3485C12.1775 18.095 12.3109 17.8709 12.4793 17.6705H12.4851Z" fill="#8C191C"/>
<path d="M12.1774 18.9971C12.1774 19.2152 12.2239 19.4216 12.2935 19.6161L12.99 19.174L12.1774 18.9971Z" fill="#8C191C"/>
<path d="M11.9801 18.997C11.9801 18.997 11.9801 18.9676 11.9801 18.9558L8.95606 18.2954C7.64428 18.8673 6.48922 19.6161 5.57214 20.4239C6.7272 20.9073 8.09702 21.2434 9.55971 21.3495L12.1194 19.7222C12.0323 19.4982 11.9801 19.2506 11.9801 18.997Z" fill="#8C191C"/>
<path d="M13.0887 20.5772L13.3383 19.7871L12.6069 20.1703C12.7404 20.3354 12.903 20.471 13.0887 20.5772Z" fill="#8C191C"/>
<path d="M12.4329 20.2588L9.67581 21.7033C9.03734 22.9827 8.63104 24.3034 8.45691 25.5121C9.6526 25.1407 10.9237 24.5098 12.1136 23.649L13.0307 20.7658C12.7985 20.6361 12.5954 20.4651 12.4329 20.2588Z" fill="#8C191C"/>
<path d="M14.8939 18.4782L15.7239 18.3662C15.6484 18.1657 15.5381 17.983 15.4046 17.8179L14.8997 18.4782H14.8939Z" fill="#8C191C"/>
<path d="M17.3259 15.318L15.5208 17.6646C15.6949 17.8592 15.8284 18.0891 15.9154 18.3427L19.044 17.924C20.0597 16.9512 20.8723 15.8663 21.447 14.8051C20.1816 14.7402 18.7538 14.9053 17.3259 15.3121V15.318Z" fill="#8C191C"/>
<path d="M14.3598 18.0242L14.9171 17.4169C14.7371 17.3108 14.5398 17.2341 14.325 17.1987L14.3598 18.0242Z" fill="#8C191C"/>
<path d="M17.0008 11.0139C15.9967 11.7745 15.0099 12.8122 14.1857 14.0386L14.3134 17.0042C14.5804 17.0455 14.83 17.1339 15.0506 17.2695L17.1633 14.9524C17.3143 13.5492 17.2446 12.1931 17.0008 11.0139Z" fill="#8C191C"/>
<path d="M13.0945 17.4169L13.6518 18.0242L13.6866 17.1987C13.4718 17.2341 13.2745 17.3166 13.0945 17.4169Z" fill="#8C191C"/>
<path d="M13.6924 17.0042L13.8201 13.8911C13.0307 12.7119 12.1078 11.7155 11.1559 10.9608C10.8773 12.1872 10.7902 13.6022 10.9353 15.0644L12.961 17.2754C13.1816 17.1398 13.4312 17.0514 13.6924 17.0101V17.0042Z" fill="#8C191C"/>
<path d="M15.7239 19.622C15.7935 19.4275 15.84 19.2211 15.84 18.9971L15.0215 19.1798L15.7239 19.6279V19.622Z" fill="#8C191C"/>
<path d="M18.9221 18.319L16.0315 18.9557C16.0315 18.9557 16.0315 18.9852 16.0315 19.0029C16.0315 19.2623 15.9793 19.5041 15.8922 19.734L18.5564 21.4262C19.961 21.3318 21.2844 21.0252 22.4046 20.583C21.4702 19.7222 20.2745 18.9263 18.9163 18.3249L18.9221 18.319Z" fill="#8C191C"/>
<path d="M15.4046 20.1703L14.6675 19.7871L14.9171 20.5831C15.1028 20.4769 15.2653 20.3354 15.4046 20.1762V20.1703Z" fill="#8C191C"/>
<path d="M18.1849 21.6207L15.5846 20.2646C15.4163 20.471 15.2131 20.642 14.981 20.7717L15.9329 23.7728C17.0763 24.61 18.2952 25.235 19.4445 25.6182C19.2994 24.498 18.4461 22.2752 18.1849 21.6266V21.6207Z" fill="#8C191C"/>
<path d="M14.3251 20.8012L14.0058 20.0288L13.6866 20.8012C13.7911 20.8189 13.8955 20.8366 14.0058 20.8366C14.1161 20.8366 14.2206 20.8248 14.3193 20.8071L14.3251 20.8012Z" fill="#8C191C"/>
<path d="M14.0058 21.0311C13.8665 21.0311 13.7388 21.0193 13.6053 20.9899L12.4154 23.873C12.7521 25.2586 13.2861 26.5262 13.9245 27.5639C14.6036 26.5026 15.1783 25.1996 15.5381 23.7669L14.3947 20.9899C14.267 21.0135 14.1335 21.0311 14 21.0311H14.0058Z" fill="#8C191C"/>
<path d="M5.03812 19.0029C5.03812 14.0562 9.06051 10.0352 14.0116 10.0352C18.9627 10.0352 22.9851 14.0562 22.9851 19.0029C22.9851 23.9497 18.9627 27.9707 14.0116 27.9707C9.06051 27.9707 5.03812 23.9438 5.03812 19.0029ZM4.64923 19.0029C4.64923 24.1678 8.85155 28.3658 14.0116 28.3658C19.1716 28.3658 23.3739 24.1619 23.3739 19.0029C23.3739 13.844 19.1716 9.64014 14.0116 9.64014C8.85155 9.64014 4.64923 13.8381 4.64923 19.0029Z" fill="#8C191C"/>
<path d="M15.8748 18.997C15.8748 20.0229 15.0448 20.8542 14.0174 20.8542C12.9901 20.8542 12.16 20.0229 12.16 18.997C12.16 17.9711 12.9959 17.1398 14.0174 17.1398C15.039 17.1398 15.8748 17.9711 15.8748 18.997Z" fill="#8C191C"/>
</g>
<path d="M35.3125 7.25H43.3594C45.0885 7.25 46.5625 7.51042 47.7812 8.03125C49 8.55208 49.9323 9.32292 50.5781 10.3438C51.2344 11.3542 51.5625 12.6042 51.5625 14.0938C51.5625 15.2292 51.3542 16.2292 50.9375 17.0938C50.5208 17.9583 49.9323 18.6875 49.1719 19.2812C48.4115 19.8646 47.5052 20.3177 46.4531 20.6406L45.2656 21.2188H38.0312L38 18.1094H43.4219C44.3594 18.1094 45.1406 17.9427 45.7656 17.6094C46.3906 17.276 46.8594 16.8229 47.1719 16.25C47.4948 15.6667 47.6562 15.0104 47.6562 14.2812C47.6562 13.4896 47.5 12.8021 47.1875 12.2188C46.8854 11.625 46.4167 11.1719 45.7812 10.8594C45.1458 10.5365 44.3385 10.375 43.3594 10.375H39.2344V30H35.3125V7.25ZM48.2969 30L42.9531 19.7812L47.0625 19.7656L52.4844 29.7969V30H48.2969ZM59.0312 11.7969V30H55.25V11.7969H59.0312ZM70.5312 15.5312L65.0625 30H61.25L68.5781 11.7969H71.1094L70.5312 15.5312ZM75.5781 30L70.0781 15.5L69.5 11.7969H72.0781L79.3906 30H75.5781ZM75.3438 23.25V26.0781H64.9375V23.25H75.3438ZM93.8125 27.0156V30H83.9531V27.0156H93.8125ZM85.1406 11.7969V30H81.375V11.7969H85.1406ZM103.641 11.7969V30H99.875V11.7969H103.641ZM109.703 11.7969V14.7969H93.8906V11.7969H109.703ZM128.031 20.4688V21.3438C128.031 22.7292 127.833 23.9688 127.438 25.0625C127.042 26.1562 126.479 27.0938 125.75 27.875C125.031 28.6458 124.167 29.2344 123.156 29.6406C122.146 30.0469 121.031 30.25 119.812 30.25C118.594 30.25 117.479 30.0469 116.469 29.6406C115.458 29.2344 114.583 28.6458 113.844 27.875C113.104 27.0938 112.531 26.1562 112.125 25.0625C111.729 23.9688 111.531 22.7292 111.531 21.3438V20.4688C111.531 19.0833 111.729 17.8438 112.125 16.75C112.531 15.6562 113.099 14.7188 113.828 13.9375C114.557 13.1562 115.427 12.5625 116.438 12.1562C117.448 11.75 118.562 11.5469 119.781 11.5469C121.01 11.5469 122.125 11.75 123.125 12.1562C124.135 12.5625 125.005 13.1562 125.734 13.9375C126.474 14.7188 127.042 15.6562 127.438 16.75C127.833 17.8438 128.031 19.0833 128.031 20.4688ZM124.266 21.3438V20.4375C124.266 19.4896 124.167 18.651 123.969 17.9219C123.771 17.1927 123.474 16.5781 123.078 16.0781C122.693 15.5781 122.224 15.1979 121.672 14.9375C121.12 14.6771 120.49 14.5469 119.781 14.5469C119.083 14.5469 118.453 14.6771 117.891 14.9375C117.339 15.1979 116.87 15.5781 116.484 16.0781C116.109 16.5781 115.818 17.1927 115.609 17.9219C115.411 18.651 115.312 19.4896 115.312 20.4375V21.3438C115.312 22.2812 115.411 23.1198 115.609 23.8594C115.818 24.5885 116.115 25.2083 116.5 25.7188C116.896 26.2188 117.37 26.6042 117.922 26.875C118.484 27.1354 119.115 27.2656 119.812 27.2656C120.521 27.2656 121.146 27.1354 121.688 26.875C122.24 26.6042 122.708 26.2188 123.094 25.7188C123.479 25.2083 123.771 24.5885 123.969 23.8594C124.167 23.1198 124.266 22.2812 124.266 21.3438Z" fill="#2E2D29"/>
<line x1="140.5" y1="5" x2="140.5" y2="33" stroke="black"/>
<path d="M169.688 17.4062V19.8438C169.688 21.4375 169.479 22.8802 169.062 24.1719C168.656 25.4531 168.062 26.5521 167.281 27.4688C166.51 28.3854 165.583 29.0885 164.5 29.5781C163.417 30.0677 162.198 30.3125 160.844 30.3125C159.521 30.3125 158.312 30.0677 157.219 29.5781C156.135 29.0885 155.203 28.3854 154.422 27.4688C153.641 26.5521 153.036 25.4531 152.609 24.1719C152.182 22.8802 151.969 21.4375 151.969 19.8438V17.4062C151.969 15.8125 152.177 14.375 152.594 13.0938C153.021 11.8021 153.625 10.6979 154.406 9.78125C155.188 8.86458 156.12 8.16146 157.203 7.67188C158.286 7.18229 159.49 6.9375 160.812 6.9375C162.167 6.9375 163.385 7.18229 164.469 7.67188C165.552 8.16146 166.484 8.86458 167.266 9.78125C168.047 10.6979 168.646 11.8021 169.062 13.0938C169.479 14.375 169.688 15.8125 169.688 17.4062ZM167.781 19.8438V17.375C167.781 16.0312 167.625 14.8229 167.312 13.75C167.01 12.6771 166.557 11.7604 165.953 11C165.359 10.2396 164.63 9.65625 163.766 9.25C162.901 8.84375 161.917 8.64062 160.812 8.64062C159.74 8.64062 158.776 8.84375 157.922 9.25C157.068 9.65625 156.339 10.2396 155.734 11C155.141 11.7604 154.682 12.6771 154.359 13.75C154.047 14.8229 153.891 16.0312 153.891 17.375V19.8438C153.891 21.1979 154.047 22.4167 154.359 23.5C154.682 24.5729 155.146 25.4948 155.75 26.2656C156.354 27.026 157.083 27.6094 157.938 28.0156C158.802 28.4219 159.771 28.625 160.844 28.625C161.958 28.625 162.943 28.4219 163.797 28.0156C164.651 27.6094 165.375 27.026 165.969 26.2656C166.562 25.4948 167.01 24.5729 167.312 23.5C167.625 22.4167 167.781 21.1979 167.781 19.8438ZM174.5 7.25H181.891C183.464 7.25 184.828 7.50521 185.984 8.01562C187.141 8.52604 188.031 9.28125 188.656 10.2812C189.292 11.2708 189.609 12.4896 189.609 13.9375C189.609 15.0104 189.38 15.9844 188.922 16.8594C188.474 17.7344 187.854 18.4688 187.062 19.0625C186.271 19.6458 185.354 20.0469 184.312 20.2656L183.641 20.5156H175.75L175.719 18.875H182.328C183.516 18.875 184.505 18.6458 185.297 18.1875C186.089 17.7292 186.682 17.125 187.078 16.375C187.484 15.6146 187.688 14.8021 187.688 13.9375C187.688 12.9062 187.464 12.0156 187.016 11.2656C186.578 10.5052 185.927 9.92188 185.062 9.51562C184.198 9.10938 183.141 8.90625 181.891 8.90625H176.422V30H174.5V7.25ZM188.547 30L182.656 19.8281L184.719 19.8125L190.594 29.7969V30H188.547ZM209.062 22.9062H210.984C210.828 24.4375 210.406 25.7604 209.719 26.875C209.031 27.9792 208.094 28.8281 206.906 29.4219C205.719 30.0156 204.286 30.3125 202.609 30.3125C201.318 30.3125 200.146 30.0677 199.094 29.5781C198.052 29.0885 197.156 28.3958 196.406 27.5C195.656 26.5938 195.078 25.5104 194.672 24.25C194.266 22.9896 194.062 21.5885 194.062 20.0469V17.2031C194.062 15.6615 194.266 14.2656 194.672 13.0156C195.078 11.7552 195.661 10.6719 196.422 9.76562C197.182 8.85938 198.094 8.16146 199.156 7.67188C200.219 7.18229 201.417 6.9375 202.75 6.9375C204.365 6.9375 205.76 7.23438 206.938 7.82812C208.115 8.41146 209.042 9.25521 209.719 10.3594C210.406 11.4635 210.828 12.7969 210.984 14.3594H209.062C208.917 13.1302 208.594 12.0885 208.094 11.2344C207.594 10.3802 206.901 9.72917 206.016 9.28125C205.141 8.82292 204.052 8.59375 202.75 8.59375C201.688 8.59375 200.74 8.79688 199.906 9.20312C199.073 9.60938 198.365 10.1927 197.781 10.9531C197.198 11.7031 196.75 12.6042 196.438 13.6562C196.135 14.7083 195.984 15.8802 195.984 17.1719V20.0469C195.984 21.2969 196.13 22.4479 196.422 23.5C196.714 24.5521 197.141 25.4635 197.703 26.2344C198.276 27.0052 198.974 27.6042 199.797 28.0312C200.62 28.4583 201.557 28.6719 202.609 28.6719C203.953 28.6719 205.073 28.4583 205.969 28.0312C206.875 27.5938 207.578 26.9479 208.078 26.0938C208.578 25.2396 208.906 24.1771 209.062 22.9062ZM218.016 7.25V30H216.094V7.25H218.016ZM230.422 30H225.266L225.297 28.3594H230.422C232.057 28.3594 233.464 27.9948 234.641 27.2656C235.828 26.526 236.745 25.5052 237.391 24.2031C238.036 22.901 238.359 21.3906 238.359 19.6719V17.5469C238.359 16.2344 238.172 15.0469 237.797 13.9844C237.432 12.9219 236.906 12.0156 236.219 11.2656C235.531 10.5052 234.708 9.92188 233.75 9.51562C232.802 9.10938 231.74 8.90625 230.562 8.90625H225.172V7.25H230.562C231.979 7.25 233.276 7.49479 234.453 7.98438C235.641 8.46354 236.667 9.16146 237.531 10.0781C238.406 10.9844 239.078 12.0729 239.547 13.3438C240.026 14.6146 240.266 16.0312 240.266 17.5938V19.6719C240.266 21.2344 240.026 22.651 239.547 23.9219C239.078 25.1927 238.406 26.2812 237.531 27.1875C236.656 28.0938 235.62 28.7917 234.422 29.2812C233.224 29.7604 231.891 30 230.422 30ZM226.125 7.25V30H224.203V7.25H226.125Z" fill="black"/>
<defs>
<clipPath id="clip0_216_50">
<rect width="28" height="28" fill="white" transform="translate(0 5)"/>
</clipPath>
</defs>
</svg>
