<svg width="334" height="38" viewBox="0 0 334 38" fill="none" xmlns="http://www.w3.org/2000/svg">
<g clip-path="url(#clip0_216_103)">
<path d="M13.9884 31.9977C6.77363 31.9977 0.922886 26.1784 0.922886 19.0029C0.922886 11.8275 6.77363 6.00821 13.9884 6.00821C21.2032 6.00821 27.0539 11.8275 27.0539 19.0029C27.0539 26.1784 21.2032 31.9977 13.9884 31.9977ZM14 5C6.28027 5 0 11.2792 0 19.0029C0 26.7267 6.28027 33.0059 14 33.0059C21.7197 33.0059 28 26.7267 28 19.0029C28 11.2792 21.7197 5 14 5Z" fill="#8C191C"/>
<path d="M14.0174 27.5816C9.28687 27.5816 5.45602 23.7433 5.45602 19.0089C5.45602 14.2744 9.28687 10.4361 14.0174 10.4361C18.7479 10.4361 22.5787 14.2744 22.5787 19.0089C22.5787 23.7433 18.7479 27.5816 14.0174 27.5816ZM22.9908 20.5831C23.2578 19.0678 24.1633 17.7825 25.4229 16.9924C23.966 16.6799 22.6774 15.7779 21.8996 14.4395C21.4237 13.614 21.1857 12.6943 21.1857 11.7745C21.1857 11.2203 21.2728 10.6719 21.4411 10.1413C20.1293 10.8311 18.5622 10.9608 17.1169 10.4361C15.6774 9.90546 14.563 8.79702 14.0058 7.41736C13.4428 8.79702 12.3283 9.91136 10.8772 10.442C9.43778 10.9667 7.87642 10.8311 6.56464 10.1413C6.73297 10.6719 6.82003 11.2144 6.82003 11.7686C6.82003 12.6943 6.58206 13.6199 6.1003 14.4572C5.32833 15.7838 4.03977 16.6858 2.58289 16.9983C3.83081 17.7825 4.73048 19.0501 5.00909 20.5477L5.0265 20.6538C5.07294 20.9427 5.09615 21.2316 5.09615 21.5205C5.09615 22.7174 4.68405 23.8671 3.96431 24.7987C5.4328 24.5982 6.94773 25.0051 8.126 25.9838L8.16663 26.0192C8.16663 26.0192 8.19566 26.0428 8.20726 26.0545C9.3391 27.0392 9.97758 28.4424 10.0356 29.8987C11.034 28.7962 12.4618 28.1299 14.0116 28.1299C15.5439 28.1299 16.9718 28.7962 17.9701 29.8987C18.0282 28.4129 18.6957 26.9861 19.8797 25.9897C21.058 25.0051 22.5729 24.5982 24.0472 24.7928C23.3217 23.8612 22.9096 22.7115 22.9096 21.5146C22.9096 21.2081 22.9386 20.9015 22.9908 20.5949C22.9908 20.5949 22.9908 20.5831 22.9908 20.5772V20.5831Z" fill="#8C191C"/>
<path d="M22.1028 13.844C22.5672 12.8181 22.8284 11.7509 22.8284 10.8724C22.8284 10.2297 22.6891 9.69911 22.4279 9.35125C21.9693 10.0823 21.7255 11.0375 21.7255 11.9867C21.7255 12.6471 21.8706 13.278 22.1086 13.844H22.1028ZM14.4121 28.5898C15.5556 30.2289 17.0995 31.3079 18.1095 31.1841C17.4071 29.8457 15.8632 28.7726 14.4121 28.5898ZM5.50829 14.5987C3.51161 14.7755 1.7471 15.601 1.3466 16.5502C2.85572 16.6092 4.61443 15.772 5.50829 14.5987ZM22.0099 9.02107C21.0813 8.55529 19.2587 9.02107 17.6625 10.1295C19.0962 10.4538 20.9187 9.99391 22.0099 9.02107ZM18.4867 30.1169C18.4867 30.4294 18.5448 30.7183 18.6086 31.0072C19.3574 30.5001 19.8507 29.0202 19.8507 27.3399C19.8507 27.1099 19.8217 26.8682 19.8043 26.6265C19.0033 27.505 18.4925 28.8551 18.4925 30.1169H18.4867ZM1.24792 17.0455C1.30597 18.0655 2.65837 19.398 4.48673 20.247C4.05141 18.8615 2.68739 17.5054 1.24792 17.0455ZM26.665 16.5502C26.2645 15.601 24.5058 14.7755 22.5033 14.5987C23.3914 15.772 25.1501 16.6033 26.665 16.5502ZM9.89635 31.1782C10.9121 31.302 12.4502 30.2289 13.5937 28.5839C12.1426 28.7667 10.5987 29.8398 9.89635 31.1782ZM6.28607 11.9867C6.28607 11.0375 6.04229 10.0823 5.58375 9.35125C5.32255 9.69911 5.18325 10.2297 5.18325 10.8724C5.18325 11.7509 5.43864 12.824 5.90879 13.844C6.14096 13.2839 6.29187 12.653 6.29187 11.9867H6.28607ZM10.3433 10.1295C8.7471 9.02107 6.91874 8.56119 5.99585 9.02107C7.09287 10.0057 8.8922 10.4656 10.3433 10.1295ZM23.5191 20.2411C25.3474 19.3921 26.6998 18.0596 26.7579 17.0396C25.3184 17.4936 23.9544 18.8556 23.5191 20.2411ZM8.15506 27.3281C8.15506 29.0143 8.64842 30.4942 9.39718 31.0013C9.45522 30.7124 9.51326 30.4235 9.51326 30.1169C9.51326 28.8492 9.00248 27.4991 8.20149 26.6206C8.18408 26.8564 8.15506 27.0981 8.15506 27.3281ZM11.1443 9.84061C12.4386 9.16847 13.5473 7.58245 13.7504 6.07898C12.7637 6.32071 11.6609 7.90673 11.1443 9.84061ZM16.8673 9.84061C16.3507 7.90673 15.2479 6.32071 14.2612 6.07898C14.4701 7.58245 15.573 9.16847 16.8673 9.84061ZM23.3565 21.267C23.3565 22.6938 24.1343 24.274 25.2604 25.1466C25.301 25.0051 25.33 24.8577 25.33 24.6926C25.33 23.6844 24.5638 22.2752 23.374 21.0783C23.374 21.1432 23.3565 21.2022 23.3565 21.267ZM20.4718 26.0428C22.3698 26.538 24.2562 26.3552 24.9701 25.6006C23.6003 25.0522 21.7139 25.2409 20.4718 26.0428ZM3.04146 25.6065C3.75539 26.3611 5.64179 26.5439 7.5398 26.0428C6.29768 25.2468 4.41127 25.0581 3.04146 25.6065ZM4.65506 21.2729C4.65506 21.2081 4.64345 21.1432 4.63764 21.0783C3.44776 22.2693 2.68159 23.6844 2.68159 24.6926C2.68159 24.8577 2.71061 25.011 2.75124 25.1466C3.87728 24.274 4.65506 22.6997 4.65506 21.2729Z" fill="#8C191C"/>
<path d="M13.1119 18.4781L12.6127 17.8296C12.4792 17.9888 12.369 18.1716 12.2993 18.372L13.1177 18.4781H13.1119Z" fill="#8C191C"/>
<path d="M12.4851 17.6705L10.5871 15.2118C9.21725 14.8109 7.85324 14.6399 6.64014 14.6753C7.21476 15.7896 8.05058 16.9276 9.10117 17.9535L12.0904 18.3485C12.1775 18.095 12.3109 17.8709 12.4793 17.6705H12.4851Z" fill="#8C191C"/>
<path d="M12.1775 18.9971C12.1775 19.2152 12.2239 19.4216 12.2936 19.6161L12.9901 19.174L12.1775 18.9971Z" fill="#8C191C"/>
<path d="M11.9801 18.997C11.9801 18.997 11.9801 18.9676 11.9801 18.9558L8.95606 18.2954C7.64428 18.8673 6.48922 19.6161 5.57214 20.4239C6.7272 20.9073 8.09702 21.2434 9.55971 21.3495L12.1194 19.7222C12.0323 19.4982 11.9801 19.2506 11.9801 18.997Z" fill="#8C191C"/>
<path d="M13.0887 20.5772L13.3383 19.7871L12.6069 20.1703C12.7404 20.3354 12.903 20.471 13.0887 20.5772Z" fill="#8C191C"/>
<path d="M12.4329 20.2588L9.67581 21.7033C9.03734 22.9827 8.63104 24.3034 8.45691 25.5121C9.6526 25.1407 10.9237 24.5098 12.1136 23.649L13.0307 20.7658C12.7985 20.6361 12.5954 20.4651 12.4329 20.2588Z" fill="#8C191C"/>
<path d="M14.8939 18.4782L15.7239 18.3662C15.6485 18.1657 15.5382 17.983 15.4047 17.8179L14.8997 18.4782H14.8939Z" fill="#8C191C"/>
<path d="M17.3259 15.318L15.5208 17.6646C15.6949 17.8592 15.8284 18.0891 15.9154 18.3427L19.044 17.924C20.0597 16.9512 20.8723 15.8663 21.447 14.8051C20.1816 14.7402 18.7538 14.9053 17.3259 15.3121V15.318Z" fill="#8C191C"/>
<path d="M14.3599 18.0242L14.9171 17.4169C14.7372 17.3108 14.5398 17.2341 14.3251 17.1987L14.3599 18.0242Z" fill="#8C191C"/>
<path d="M17.0009 11.0139C15.9967 11.7745 15.01 12.8122 14.1858 14.0386L14.3135 17.0042C14.5805 17.0455 14.8301 17.1339 15.0506 17.2695L17.1634 14.9524C17.3143 13.5492 17.2447 12.1931 17.0009 11.0139Z" fill="#8C191C"/>
<path d="M13.0945 17.4169L13.6517 18.0242L13.6865 17.1987C13.4718 17.2341 13.2744 17.3166 13.0945 17.4169Z" fill="#8C191C"/>
<path d="M13.6923 17.0042L13.82 13.8911C13.0306 12.7119 12.1078 11.7155 11.1558 10.9608C10.8772 12.1872 10.7902 13.6022 10.9353 15.0644L12.961 17.2754C13.1815 17.1398 13.4311 17.0514 13.6923 17.0101V17.0042Z" fill="#8C191C"/>
<path d="M15.7239 19.622C15.7936 19.4275 15.84 19.2211 15.84 18.9971L15.0216 19.1798L15.7239 19.6279V19.622Z" fill="#8C191C"/>
<path d="M18.9221 18.319L16.0315 18.9557C16.0315 18.9557 16.0315 18.9852 16.0315 19.0029C16.0315 19.2623 15.9793 19.5041 15.8922 19.734L18.5564 21.4262C19.961 21.3318 21.2844 21.0252 22.4046 20.583C21.4702 19.7222 20.2745 18.9263 18.9163 18.3249L18.9221 18.319Z" fill="#8C191C"/>
<path d="M15.4046 20.1703L14.6675 19.7871L14.9171 20.5831C15.1028 20.4769 15.2653 20.3354 15.4046 20.1762V20.1703Z" fill="#8C191C"/>
<path d="M18.1849 21.6207L15.5846 20.2646C15.4163 20.471 15.2131 20.642 14.981 20.7717L15.9329 23.7728C17.0763 24.61 18.2952 25.235 19.4445 25.6182C19.2994 24.498 18.4461 22.2752 18.1849 21.6266V21.6207Z" fill="#8C191C"/>
<path d="M14.325 20.8012L14.0058 20.0288L13.6865 20.8012C13.791 20.8189 13.8955 20.8366 14.0058 20.8366C14.116 20.8366 14.2205 20.8248 14.3192 20.8071L14.325 20.8012Z" fill="#8C191C"/>
<path d="M14.0058 21.0311C13.8665 21.0311 13.7388 21.0193 13.6053 20.9899L12.4154 23.873C12.7521 25.2586 13.2861 26.5262 13.9245 27.5639C14.6036 26.5026 15.1783 25.1996 15.5381 23.7669L14.3947 20.9899C14.267 21.0135 14.1335 21.0311 14 21.0311H14.0058Z" fill="#8C191C"/>
<path d="M5.03818 19.0029C5.03818 14.0562 9.06057 10.0352 14.0116 10.0352C18.9627 10.0352 22.9851 14.0562 22.9851 19.0029C22.9851 23.9497 18.9627 27.9707 14.0116 27.9707C9.06057 27.9707 5.03818 23.9438 5.03818 19.0029ZM4.64929 19.0029C4.64929 24.1678 8.85161 28.3658 14.0116 28.3658C19.1717 28.3658 23.374 24.1619 23.374 19.0029C23.374 13.844 19.1717 9.64014 14.0116 9.64014C8.85161 9.64014 4.64929 13.8381 4.64929 19.0029Z" fill="#8C191C"/>
<path d="M15.8748 18.997C15.8748 20.0229 15.0448 20.8542 14.0174 20.8542C12.9901 20.8542 12.16 20.0229 12.16 18.997C12.16 17.9711 12.9959 17.1398 14.0174 17.1398C15.039 17.1398 15.8748 17.9711 15.8748 18.997Z" fill="#8C191C"/>
</g>
<path d="M35.3125 7.25H43.3594C45.0885 7.25 46.5625 7.51042 47.7812 8.03125C49 8.55208 49.9323 9.32292 50.5781 10.3438C51.2344 11.3542 51.5625 12.6042 51.5625 14.0938C51.5625 15.2292 51.3542 16.2292 50.9375 17.0938C50.5208 17.9583 49.9323 18.6875 49.1719 19.2812C48.4115 19.8646 47.5052 20.3177 46.4531 20.6406L45.2656 21.2188H38.0312L38 18.1094H43.4219C44.3594 18.1094 45.1406 17.9427 45.7656 17.6094C46.3906 17.276 46.8594 16.8229 47.1719 16.25C47.4948 15.6667 47.6562 15.0104 47.6562 14.2812C47.6562 13.4896 47.5 12.8021 47.1875 12.2188C46.8854 11.625 46.4167 11.1719 45.7812 10.8594C45.1458 10.5365 44.3385 10.375 43.3594 10.375H39.2344V30H35.3125V7.25ZM48.2969 30L42.9531 19.7812L47.0625 19.7656L52.4844 29.7969V30H48.2969ZM59.0312 11.7969V30H55.25V11.7969H59.0312ZM70.5312 15.5312L65.0625 30H61.25L68.5781 11.7969H71.1094L70.5312 15.5312ZM75.5781 30L70.0781 15.5L69.5 11.7969H72.0781L79.3906 30H75.5781ZM75.3438 23.25V26.0781H64.9375V23.25H75.3438ZM93.8125 27.0156V30H83.9531V27.0156H93.8125ZM85.1406 11.7969V30H81.375V11.7969H85.1406ZM103.641 11.7969V30H99.875V11.7969H103.641ZM109.703 11.7969V14.7969H93.8906V11.7969H109.703ZM128.031 20.4688V21.3438C128.031 22.7292 127.833 23.9688 127.438 25.0625C127.042 26.1562 126.479 27.0938 125.75 27.875C125.031 28.6458 124.167 29.2344 123.156 29.6406C122.146 30.0469 121.031 30.25 119.812 30.25C118.594 30.25 117.479 30.0469 116.469 29.6406C115.458 29.2344 114.583 28.6458 113.844 27.875C113.104 27.0938 112.531 26.1562 112.125 25.0625C111.729 23.9688 111.531 22.7292 111.531 21.3438V20.4688C111.531 19.0833 111.729 17.8438 112.125 16.75C112.531 15.6562 113.099 14.7188 113.828 13.9375C114.557 13.1562 115.427 12.5625 116.438 12.1562C117.448 11.75 118.562 11.5469 119.781 11.5469C121.01 11.5469 122.125 11.75 123.125 12.1562C124.135 12.5625 125.005 13.1562 125.734 13.9375C126.474 14.7188 127.042 15.6562 127.438 16.75C127.833 17.8438 128.031 19.0833 128.031 20.4688ZM124.266 21.3438V20.4375C124.266 19.4896 124.167 18.651 123.969 17.9219C123.771 17.1927 123.474 16.5781 123.078 16.0781C122.693 15.5781 122.224 15.1979 121.672 14.9375C121.12 14.6771 120.49 14.5469 119.781 14.5469C119.083 14.5469 118.453 14.6771 117.891 14.9375C117.339 15.1979 116.87 15.5781 116.484 16.0781C116.109 16.5781 115.818 17.1927 115.609 17.9219C115.411 18.651 115.312 19.4896 115.312 20.4375V21.3438C115.312 22.2812 115.411 23.1198 115.609 23.8594C115.818 24.5885 116.115 25.2083 116.5 25.7188C116.896 26.2188 117.37 26.6042 117.922 26.875C118.484 27.1354 119.115 27.2656 119.812 27.2656C120.521 27.2656 121.146 27.1354 121.688 26.875C122.24 26.6042 122.708 26.2188 123.094 25.7188C123.479 25.2083 123.771 24.5885 123.969 23.8594C124.167 23.1198 124.266 22.2812 124.266 21.3438Z" fill="#2E2D29"/>
<line x1="140.5" y1="5" x2="140.5" y2="33" stroke="black"/>
<path d="M169.688 17.4062V19.8438C169.688 21.4375 169.479 22.8802 169.062 24.1719C168.656 25.4531 168.062 26.5521 167.281 27.4688C166.51 28.3854 165.583 29.0885 164.5 29.5781C163.417 30.0677 162.198 30.3125 160.844 30.3125C159.521 30.3125 158.312 30.0677 157.219 29.5781C156.135 29.0885 155.203 28.3854 154.422 27.4688C153.641 26.5521 153.036 25.4531 152.609 24.1719C152.182 22.8802 151.969 21.4375 151.969 19.8438V17.4062C151.969 15.8125 152.177 14.375 152.594 13.0938C153.021 11.8021 153.625 10.6979 154.406 9.78125C155.188 8.86458 156.12 8.16146 157.203 7.67188C158.286 7.18229 159.49 6.9375 160.812 6.9375C162.167 6.9375 163.385 7.18229 164.469 7.67188C165.552 8.16146 166.484 8.86458 167.266 9.78125C168.047 10.6979 168.646 11.8021 169.062 13.0938C169.479 14.375 169.688 15.8125 169.688 17.4062ZM167.781 19.8438V17.375C167.781 16.0312 167.625 14.8229 167.312 13.75C167.01 12.6771 166.557 11.7604 165.953 11C165.359 10.2396 164.63 9.65625 163.766 9.25C162.901 8.84375 161.917 8.64062 160.812 8.64062C159.74 8.64062 158.776 8.84375 157.922 9.25C157.068 9.65625 156.339 10.2396 155.734 11C155.141 11.7604 154.682 12.6771 154.359 13.75C154.047 14.8229 153.891 16.0312 153.891 17.375V19.8438C153.891 21.1979 154.047 22.4167 154.359 23.5C154.682 24.5729 155.146 25.4948 155.75 26.2656C156.354 27.026 157.083 27.6094 157.938 28.0156C158.802 28.4219 159.771 28.625 160.844 28.625C161.958 28.625 162.943 28.4219 163.797 28.0156C164.651 27.6094 165.375 27.026 165.969 26.2656C166.562 25.4948 167.01 24.5729 167.312 23.5C167.625 22.4167 167.781 21.1979 167.781 19.8438ZM175.953 16.3438V36.5H174.078V13.0938H175.828L175.953 16.3438ZM187.703 21.3906V21.7188C187.703 22.9792 187.557 24.1354 187.266 25.1875C186.974 26.2396 186.552 27.151 186 27.9219C185.458 28.6823 184.786 29.2708 183.984 29.6875C183.182 30.1042 182.271 30.3125 181.25 30.3125C180.24 30.3125 179.339 30.1562 178.547 29.8438C177.755 29.5312 177.073 29.0885 176.5 28.5156C175.938 27.9323 175.484 27.2552 175.141 26.4844C174.807 25.7031 174.573 24.849 174.438 23.9219V19.5938C174.594 18.5729 174.849 17.6458 175.203 16.8125C175.557 15.9792 176.01 15.2604 176.562 14.6562C177.125 14.0521 177.792 13.5885 178.562 13.2656C179.333 12.9427 180.214 12.7812 181.203 12.7812C182.234 12.7812 183.151 12.9844 183.953 13.3906C184.766 13.7865 185.448 14.3646 186 15.125C186.562 15.875 186.984 16.7812 187.266 17.8438C187.557 18.8958 187.703 20.0781 187.703 21.3906ZM185.828 21.7188V21.3906C185.828 20.401 185.724 19.4844 185.516 18.6406C185.318 17.7969 185.01 17.0625 184.594 16.4375C184.188 15.8021 183.667 15.3073 183.031 14.9531C182.406 14.599 181.661 14.4219 180.797 14.4219C179.901 14.4219 179.135 14.5729 178.5 14.875C177.875 15.1667 177.354 15.5573 176.938 16.0469C176.521 16.526 176.193 17.0521 175.953 17.625C175.714 18.1979 175.536 18.7604 175.422 19.3125V24.2969C175.62 25.0885 175.938 25.8229 176.375 26.5C176.812 27.1667 177.396 27.7031 178.125 28.1094C178.865 28.5052 179.766 28.7031 180.828 28.7031C181.682 28.7031 182.422 28.526 183.047 28.1719C183.672 27.8177 184.188 27.3229 184.594 26.6875C185.01 26.0521 185.318 25.3125 185.516 24.4688C185.724 23.625 185.828 22.7083 185.828 21.7188ZM198.391 30.3125C197.286 30.3125 196.271 30.1094 195.344 29.7031C194.427 29.2969 193.625 28.724 192.938 27.9844C192.26 27.2448 191.734 26.3698 191.359 25.3594C190.995 24.3385 190.812 23.224 190.812 22.0156V21.3438C190.812 20.0417 191.005 18.8646 191.391 17.8125C191.776 16.7604 192.307 15.8594 192.984 15.1094C193.661 14.3594 194.432 13.7865 195.297 13.3906C196.172 12.9844 197.089 12.7812 198.047 12.7812C199.12 12.7812 200.073 12.974 200.906 13.3594C201.74 13.7344 202.438 14.2708 203 14.9688C203.573 15.6562 204.005 16.474 204.297 17.4219C204.589 18.3594 204.734 19.3958 204.734 20.5312V21.6719H191.938V20.0781H202.875V19.8594C202.854 18.9115 202.661 18.026 202.297 17.2031C201.943 16.3698 201.411 15.6927 200.703 15.1719C199.995 14.651 199.109 14.3906 198.047 14.3906C197.255 14.3906 196.526 14.5573 195.859 14.8906C195.203 15.224 194.635 15.7031 194.156 16.3281C193.688 16.9427 193.323 17.6771 193.062 18.5312C192.812 19.375 192.688 20.3125 192.688 21.3438V22.0156C192.688 22.9531 192.823 23.8281 193.094 24.6406C193.375 25.4427 193.771 26.151 194.281 26.7656C194.802 27.3802 195.417 27.8594 196.125 28.2031C196.833 28.5469 197.615 28.7188 198.469 28.7188C199.469 28.7188 200.354 28.5365 201.125 28.1719C201.896 27.7969 202.589 27.2083 203.203 26.4062L204.375 27.3125C204.01 27.8542 203.552 28.3542 203 28.8125C202.458 29.2708 201.807 29.6354 201.047 29.9062C200.286 30.1771 199.401 30.3125 198.391 30.3125ZM210.281 16.7031V30H208.422V13.0938H210.203L210.281 16.7031ZM209.859 20.5L209.031 20.0312C209.094 19.0312 209.297 18.0938 209.641 17.2188C209.984 16.3438 210.448 15.5729 211.031 14.9062C211.625 14.2396 212.318 13.7188 213.109 13.3438C213.911 12.9688 214.797 12.7812 215.766 12.7812C216.609 12.7812 217.365 12.8958 218.031 13.125C218.698 13.3542 219.266 13.7188 219.734 14.2188C220.203 14.7188 220.557 15.3594 220.797 16.1406C221.047 16.9219 221.172 17.875 221.172 19V30H219.297V18.9844C219.297 17.8177 219.135 16.9062 218.812 16.25C218.49 15.5833 218.031 15.1094 217.438 14.8281C216.844 14.5469 216.141 14.4062 215.328 14.4062C214.432 14.4062 213.646 14.6042 212.969 15C212.302 15.3854 211.74 15.8906 211.281 16.5156C210.833 17.1302 210.49 17.7917 210.25 18.5C210.01 19.1979 209.88 19.8646 209.859 20.5ZM241.734 8.60938L233.859 30H231.859L240.453 7.25H241.844L241.734 8.60938ZM248.891 30L241 8.60938L240.891 7.25H242.281L250.891 30H248.891ZM247.484 21.9688V23.625H235.406V21.9688H247.484ZM260.062 28.7031C260.854 28.7031 261.594 28.5573 262.281 28.2656C262.979 27.9635 263.552 27.5208 264 26.9375C264.458 26.3438 264.719 25.6198 264.781 24.7656H266.562C266.51 25.8385 266.182 26.7969 265.578 27.6406C264.984 28.474 264.203 29.1302 263.234 29.6094C262.276 30.0781 261.219 30.3125 260.062 30.3125C258.885 30.3125 257.844 30.099 256.938 29.6719C256.042 29.2448 255.292 28.651 254.688 27.8906C254.083 27.1198 253.625 26.224 253.312 25.2031C253.01 24.1719 252.859 23.0625 252.859 21.875V21.2188C252.859 20.0312 253.01 18.9271 253.312 17.9062C253.625 16.875 254.083 15.9792 254.688 15.2188C255.292 14.4479 256.042 13.849 256.938 13.4219C257.833 12.9948 258.87 12.7812 260.047 12.7812C261.255 12.7812 262.339 13.026 263.297 13.5156C264.266 14.0052 265.036 14.6979 265.609 15.5938C266.193 16.4896 266.51 17.5521 266.562 18.7812H264.781C264.729 17.875 264.49 17.0938 264.062 16.4375C263.635 15.7812 263.073 15.276 262.375 14.9219C261.677 14.5677 260.901 14.3906 260.047 14.3906C259.089 14.3906 258.271 14.5781 257.594 14.9531C256.917 15.3177 256.365 15.8229 255.938 16.4688C255.521 17.1042 255.214 17.8333 255.016 18.6562C254.818 19.4688 254.719 20.3229 254.719 21.2188V21.875C254.719 22.7812 254.812 23.6458 255 24.4688C255.198 25.2812 255.505 26.0052 255.922 26.6406C256.349 27.276 256.901 27.7812 257.578 28.1562C258.266 28.5208 259.094 28.7031 260.062 28.7031ZM276.562 28.7031C277.354 28.7031 278.094 28.5573 278.781 28.2656C279.479 27.9635 280.052 27.5208 280.5 26.9375C280.958 26.3438 281.219 25.6198 281.281 24.7656H283.062C283.01 25.8385 282.682 26.7969 282.078 27.6406C281.484 28.474 280.703 29.1302 279.734 29.6094C278.776 30.0781 277.719 30.3125 276.562 30.3125C275.385 30.3125 274.344 30.099 273.438 29.6719C272.542 29.2448 271.792 28.651 271.188 27.8906C270.583 27.1198 270.125 26.224 269.812 25.2031C269.51 24.1719 269.359 23.0625 269.359 21.875V21.2188C269.359 20.0312 269.51 18.9271 269.812 17.9062C270.125 16.875 270.583 15.9792 271.188 15.2188C271.792 14.4479 272.542 13.849 273.438 13.4219C274.333 12.9948 275.37 12.7812 276.547 12.7812C277.755 12.7812 278.839 13.026 279.797 13.5156C280.766 14.0052 281.536 14.6979 282.109 15.5938C282.693 16.4896 283.01 17.5521 283.062 18.7812H281.281C281.229 17.875 280.99 17.0938 280.562 16.4375C280.135 15.7812 279.573 15.276 278.875 14.9219C278.177 14.5677 277.401 14.3906 276.547 14.3906C275.589 14.3906 274.771 14.5781 274.094 14.9531C273.417 15.3177 272.865 15.8229 272.438 16.4688C272.021 17.1042 271.714 17.8333 271.516 18.6562C271.318 19.4688 271.219 20.3229 271.219 21.2188V21.875C271.219 22.7812 271.312 23.6458 271.5 24.4688C271.698 25.2812 272.005 26.0052 272.422 26.6406C272.849 27.276 273.401 27.7812 274.078 28.1562C274.766 28.5208 275.594 28.7031 276.562 28.7031ZM293.359 30.3125C292.255 30.3125 291.24 30.1094 290.312 29.7031C289.396 29.2969 288.594 28.724 287.906 27.9844C287.229 27.2448 286.703 26.3698 286.328 25.3594C285.964 24.3385 285.781 23.224 285.781 22.0156V21.3438C285.781 20.0417 285.974 18.8646 286.359 17.8125C286.745 16.7604 287.276 15.8594 287.953 15.1094C288.63 14.3594 289.401 13.7865 290.266 13.3906C291.141 12.9844 292.057 12.7812 293.016 12.7812C294.089 12.7812 295.042 12.974 295.875 13.3594C296.708 13.7344 297.406 14.2708 297.969 14.9688C298.542 15.6562 298.974 16.474 299.266 17.4219C299.557 18.3594 299.703 19.3958 299.703 20.5312V21.6719H286.906V20.0781H297.844V19.8594C297.823 18.9115 297.63 18.026 297.266 17.2031C296.911 16.3698 296.38 15.6927 295.672 15.1719C294.964 14.651 294.078 14.3906 293.016 14.3906C292.224 14.3906 291.495 14.5573 290.828 14.8906C290.172 15.224 289.604 15.7031 289.125 16.3281C288.656 16.9427 288.292 17.6771 288.031 18.5312C287.781 19.375 287.656 20.3125 287.656 21.3438V22.0156C287.656 22.9531 287.792 23.8281 288.062 24.6406C288.344 25.4427 288.74 26.151 289.25 26.7656C289.771 27.3802 290.385 27.8594 291.094 28.2031C291.802 28.5469 292.583 28.7188 293.438 28.7188C294.438 28.7188 295.323 28.5365 296.094 28.1719C296.865 27.7969 297.557 27.2083 298.172 26.4062L299.344 27.3125C298.979 27.8542 298.521 28.3542 297.969 28.8125C297.427 29.2708 296.776 29.6354 296.016 29.9062C295.255 30.1771 294.37 30.3125 293.359 30.3125ZM313.516 25.6875C313.516 25.2292 313.401 24.776 313.172 24.3281C312.943 23.8802 312.5 23.4688 311.844 23.0938C311.198 22.7188 310.245 22.401 308.984 22.1406C308.047 21.9323 307.208 21.6979 306.469 21.4375C305.74 21.1771 305.125 20.8646 304.625 20.5C304.125 20.1354 303.745 19.6979 303.484 19.1875C303.224 18.6771 303.094 18.0729 303.094 17.375C303.094 16.75 303.229 16.1615 303.5 15.6094C303.781 15.0469 304.177 14.5573 304.688 14.1406C305.208 13.7135 305.833 13.3802 306.562 13.1406C307.302 12.901 308.13 12.7812 309.047 12.7812C310.349 12.7812 311.464 13.0052 312.391 13.4531C313.328 13.8906 314.042 14.4896 314.531 15.25C315.031 16.0104 315.281 16.8698 315.281 17.8281H313.422C313.422 17.2448 313.25 16.6927 312.906 16.1719C312.573 15.651 312.078 15.224 311.422 14.8906C310.776 14.5573 309.984 14.3906 309.047 14.3906C308.078 14.3906 307.292 14.5365 306.688 14.8281C306.083 15.1198 305.641 15.4896 305.359 15.9375C305.089 16.3854 304.953 16.849 304.953 17.3281C304.953 17.7031 305.01 18.0469 305.125 18.3594C305.25 18.6615 305.469 18.9427 305.781 19.2031C306.104 19.4635 306.562 19.7083 307.156 19.9375C307.75 20.1667 308.521 20.3906 309.469 20.6094C310.833 20.9115 311.948 21.2812 312.812 21.7188C313.688 22.1458 314.333 22.6771 314.75 23.3125C315.167 23.9375 315.375 24.6979 315.375 25.5938C315.375 26.2917 315.229 26.9323 314.938 27.5156C314.646 28.0885 314.224 28.5833 313.672 29C313.13 29.4167 312.474 29.7396 311.703 29.9688C310.943 30.1979 310.089 30.3125 309.141 30.3125C307.714 30.3125 306.505 30.0781 305.516 29.6094C304.536 29.1302 303.792 28.5052 303.281 27.7344C302.781 26.9531 302.531 26.125 302.531 25.25H304.391C304.453 26.125 304.729 26.8177 305.219 27.3281C305.708 27.8281 306.307 28.1823 307.016 28.3906C307.734 28.599 308.443 28.7031 309.141 28.7031C310.099 28.7031 310.901 28.5625 311.547 28.2812C312.193 28 312.682 27.6302 313.016 27.1719C313.349 26.7135 313.516 26.2188 313.516 25.6875ZM329.734 25.6875C329.734 25.2292 329.62 24.776 329.391 24.3281C329.161 23.8802 328.719 23.4688 328.062 23.0938C327.417 22.7188 326.464 22.401 325.203 22.1406C324.266 21.9323 323.427 21.6979 322.688 21.4375C321.958 21.1771 321.344 20.8646 320.844 20.5C320.344 20.1354 319.964 19.6979 319.703 19.1875C319.443 18.6771 319.312 18.0729 319.312 17.375C319.312 16.75 319.448 16.1615 319.719 15.6094C320 15.0469 320.396 14.5573 320.906 14.1406C321.427 13.7135 322.052 13.3802 322.781 13.1406C323.521 12.901 324.349 12.7812 325.266 12.7812C326.568 12.7812 327.682 13.0052 328.609 13.4531C329.547 13.8906 330.26 14.4896 330.75 15.25C331.25 16.0104 331.5 16.8698 331.5 17.8281H329.641C329.641 17.2448 329.469 16.6927 329.125 16.1719C328.792 15.651 328.297 15.224 327.641 14.8906C326.995 14.5573 326.203 14.3906 325.266 14.3906C324.297 14.3906 323.51 14.5365 322.906 14.8281C322.302 15.1198 321.859 15.4896 321.578 15.9375C321.307 16.3854 321.172 16.849 321.172 17.3281C321.172 17.7031 321.229 18.0469 321.344 18.3594C321.469 18.6615 321.688 18.9427 322 19.2031C322.323 19.4635 322.781 19.7083 323.375 19.9375C323.969 20.1667 324.74 20.3906 325.688 20.6094C327.052 20.9115 328.167 21.2812 329.031 21.7188C329.906 22.1458 330.552 22.6771 330.969 23.3125C331.385 23.9375 331.594 24.6979 331.594 25.5938C331.594 26.2917 331.448 26.9323 331.156 27.5156C330.865 28.0885 330.443 28.5833 329.891 29C329.349 29.4167 328.693 29.7396 327.922 29.9688C327.161 30.1979 326.307 30.3125 325.359 30.3125C323.932 30.3125 322.724 30.0781 321.734 29.6094C320.755 29.1302 320.01 28.5052 319.5 27.7344C319 26.9531 318.75 26.125 318.75 25.25H320.609C320.672 26.125 320.948 26.8177 321.438 27.3281C321.927 27.8281 322.526 28.1823 323.234 28.3906C323.953 28.599 324.661 28.7031 325.359 28.7031C326.318 28.7031 327.12 28.5625 327.766 28.2812C328.411 28 328.901 27.6302 329.234 27.1719C329.568 26.7135 329.734 26.2188 329.734 25.6875Z" fill="black"/>
<defs>
<clipPath id="clip0_216_103">
<rect width="28" height="28" fill="white" transform="translate(0 5)"/>
</clipPath>
</defs>
</svg>
