<svg width="305" height="46" viewBox="0 0 305 46" fill="none" xmlns="http://www.w3.org/2000/svg">
<g clip-path="url(#clip0_68_1022)">
<path d="M14 9C6.2825 9 0 15.2802 0 23C0 30.7198 6.2825 37 14 37C21.7175 37 28 30.7198 28 23C28 15.2802 21.7233 9 14 9ZM14 35.5011C7.09333 35.5011 1.49333 29.9022 1.49333 23C1.49333 16.0978 7.09333 10.4989 14 10.4989C20.9067 10.4989 26.5067 16.0978 26.5067 23C26.5067 29.9022 20.9067 35.5011 14 35.5011Z" fill="#8B191B"/>
<path d="M26.985 23C26.985 30.1689 21.1692 35.981 13.9942 35.981C6.81917 35.981 1.015 30.1689 1.015 23C1.015 15.8311 6.825 10.0131 14 10.0131C21.175 10.0131 26.9908 15.8252 26.9908 23H26.985Z" fill="#D1C294"/>
<path d="M24.045 28.7943C23.3217 27.8582 22.9075 26.7088 22.9075 25.518C22.9075 25.2158 22.9308 24.9077 22.9892 24.5996C22.9892 24.5996 22.9892 24.5878 22.9892 24.5819C23.2575 23.0711 24.1617 21.7854 25.4217 20.9915C23.9692 20.6775 22.6742 19.7769 21.8983 18.438C21.42 17.6085 21.1867 16.6902 21.1867 15.7719C21.1867 15.2209 21.2742 14.6699 21.4433 14.1426C20.1308 14.8298 18.5675 14.9602 17.115 14.4388C15.6742 13.9115 14.56 12.7977 14 11.4172C13.44 12.7977 12.3258 13.9115 10.8733 14.4388C9.4325 14.9602 7.86917 14.8298 6.5625 14.1426C6.73167 14.6699 6.81917 15.215 6.81917 15.7719C6.81917 16.6961 6.58 17.6263 6.10167 18.4617C5.33167 19.7888 4.03667 20.6893 2.58417 20.9974C3.8325 21.7795 4.73083 23.0533 5.01083 24.5463C5.01083 24.5463 5.02833 24.647 5.02833 24.653C5.075 24.9433 5.09833 25.2336 5.09833 25.518C5.09833 26.7147 4.69 27.8641 3.96667 28.8002C5.43667 28.5988 6.95333 29.0076 8.12583 29.9852L8.16667 30.0207C8.16667 30.0207 8.19583 30.0444 8.2075 30.0563C9.33917 31.0398 9.98083 32.4439 10.0392 33.9014C11.0367 32.7994 12.4658 32.1299 14.0117 32.1299C15.5458 32.1299 16.9692 32.7935 17.9667 33.9014C18.025 32.4143 18.69 30.9864 19.8742 29.997C21.0525 29.0135 22.5692 28.6047 24.0392 28.8002L24.045 28.7943Z" fill="#8B191B"/>
<path d="M22.5517 23C22.5517 27.716 18.725 31.5374 14.0117 31.5374C9.29833 31.5374 5.47166 27.716 5.47166 23C5.47166 18.2839 9.29833 14.4566 14.0117 14.4566C18.725 14.4566 22.5517 18.278 22.5517 23Z" fill="#D0C192"/>
<path d="M4.655 25.2692C4.655 25.204 4.64334 25.1388 4.6375 25.0737C3.4475 26.2704 2.6775 27.6805 2.6775 28.6877C2.6775 28.8536 2.70667 29.0017 2.7475 29.1439C3.87334 28.273 4.64917 26.697 4.64917 25.2692H4.655ZM3.03917 29.6001C3.75084 30.3525 5.64084 30.5362 7.53667 30.0385C6.29417 29.2387 4.41 29.055 3.03917 29.6001ZM20.4692 30.0445C22.365 30.5421 24.255 30.3585 24.9667 29.606C23.5958 29.061 21.7117 29.2446 20.4692 30.0445ZM23.3567 25.2632C23.3567 26.6911 24.1325 28.273 25.2583 29.1439C25.2992 29.0017 25.3283 28.8536 25.3283 28.6877C25.3283 27.6805 24.5642 26.2704 23.3683 25.0737C23.3683 25.1388 23.3508 25.1981 23.3508 25.2632H23.3567ZM16.87 13.8405C16.3508 11.909 15.2483 10.3212 14.2625 10.0783C14.4667 11.5832 15.575 13.171 16.87 13.8405ZM11.1417 13.8405C12.4367 13.1651 13.545 11.5832 13.7492 10.0783C12.7633 10.3212 11.6608 11.909 11.1417 13.8405ZM8.155 31.3301C8.155 33.0127 8.645 34.4939 9.3975 34.9975C9.45584 34.7131 9.51417 34.4228 9.51417 34.1147C9.51417 32.8468 9.00084 31.496 8.20167 30.6191C8.18417 30.8561 8.155 31.0931 8.155 31.3301ZM23.52 24.2383C25.3458 23.391 26.6992 22.058 26.7575 21.039C25.3167 21.4952 23.9575 22.8519 23.52 24.2383ZM10.3425 14.1249C8.74417 13.0229 6.91834 12.5548 5.99667 13.0229C7.09334 14.0123 8.89584 14.4626 10.3425 14.1249ZM6.28834 15.9852C6.28834 15.0373 6.04334 14.0775 5.5825 13.3487C5.32 13.6983 5.18 14.2256 5.18 14.8714C5.18 15.7541 5.43667 16.8206 5.90334 17.8456C6.13667 17.2827 6.2825 16.6547 6.2825 15.9911L6.28834 15.9852ZM9.89334 35.1752C10.9083 35.2996 12.4483 34.2213 13.5917 32.5861C12.1392 32.7639 10.5992 33.8422 9.89334 35.1752ZM26.6642 20.5472C26.2675 19.5993 24.5058 18.7698 22.505 18.598C23.3917 19.7711 25.1533 20.6065 26.6642 20.5472ZM1.24834 21.039C1.30667 22.058 2.66 23.391 4.48584 24.2383C4.04834 22.8519 2.68917 21.4952 1.24834 21.039ZM18.4858 34.1088C18.4858 34.4169 18.5442 34.7072 18.6025 34.9975C19.355 34.4939 19.845 33.0127 19.845 31.3301C19.845 31.099 19.8158 30.8561 19.7983 30.6191C18.9933 31.496 18.4858 32.8468 18.4858 34.1088ZM22.0092 13.0229C21.0817 12.5607 19.2558 13.0229 17.6633 14.1249C19.0983 14.4507 20.9183 13.9886 22.0092 13.0229ZM5.50667 18.598C3.50584 18.7757 1.74417 19.5993 1.3475 20.5472C2.85834 20.6065 4.61417 19.7711 5.50667 18.598ZM14.4142 32.5861C15.5575 34.2273 17.0975 35.3056 18.1125 35.1811C17.4125 33.8422 15.8667 32.7698 14.4142 32.5861ZM22.1025 17.8396C22.5692 16.8147 22.8258 15.7482 22.8258 14.8714C22.8258 14.2256 22.6858 13.6983 22.4233 13.3487C21.9683 14.0834 21.7175 15.0373 21.7175 15.9852C21.7175 16.6488 21.8633 17.2768 22.1025 17.8396Z" fill="#0A515D"/>
<path d="M10.5875 19.2142C9.2225 18.8113 7.8575 18.6395 6.63834 18.675C7.21 19.7889 8.05 20.9264 9.1 21.9514L13.1017 22.4787L10.5817 19.2142H10.5875Z" fill="#0A515D"/>
<path d="M8.96 22.295C7.6475 22.8697 6.4925 23.6162 5.57667 24.4279C6.73167 24.9137 8.1025 25.2455 9.56083 25.3521L12.985 23.1778L8.96 22.295Z" fill="#0A515D"/>
<path d="M9.67167 25.7017C9.03583 26.9814 8.6275 28.3026 8.4525 29.5113C9.64833 29.138 10.92 28.51 12.11 27.645L13.335 23.7762L9.66583 25.6958L9.67167 25.7017Z" fill="#0A515D"/>
<path d="M19.0458 21.9218C20.0608 20.9501 20.8775 19.8659 21.4492 18.8054C20.1833 18.7402 18.7542 18.9061 17.3308 19.3149L14.8983 22.4728L19.0458 21.9218Z" fill="#0A515D"/>
<path d="M17.1617 18.9476C17.3133 17.5494 17.2433 16.1926 16.9983 15.0136C15.995 15.7779 15.0092 16.8088 14.1808 18.0352L14.3558 22.0225L17.1617 18.9476Z" fill="#0A515D"/>
<path d="M13.8192 17.8871C13.0317 16.708 12.1042 15.7127 11.1533 14.9603C10.8792 16.1867 10.7858 17.6027 10.9375 19.0661L13.6558 22.0284L13.825 17.893L13.8192 17.8871Z" fill="#0A515D"/>
<path d="M22.4117 24.5701C21.4783 23.711 20.2825 22.9171 18.9233 22.3128L15.0267 23.1719L18.5675 25.4173C19.9733 25.3225 21.2975 25.0145 22.4175 24.5701H22.4117Z" fill="#0A515D"/>
<path d="M15.9308 27.7635C17.0742 28.6048 18.2933 29.2269 19.4425 29.6061C19.2967 28.4863 18.4392 26.2645 18.1825 25.6128L14.665 23.7821L15.9308 27.7635Z" fill="#0A515D"/>
<path d="M12.4192 27.8701C12.7517 29.2565 13.2883 30.5244 13.93 31.5612C14.6125 30.5007 15.1842 29.1973 15.54 27.7635L14 24.025L12.4192 27.8701Z" fill="#0A515D"/>
<path d="M4.64917 23C4.64917 28.1604 8.84917 32.361 14.0117 32.361C19.1742 32.361 23.3742 28.1604 23.3742 23C23.3742 17.8396 19.1742 13.639 14.0117 13.639C8.84917 13.639 4.64917 17.8396 4.64917 23ZM5.04 23C5.04 18.0529 9.065 14.0301 14.0117 14.0301C18.9583 14.0301 22.9833 18.0529 22.9833 23C22.9833 27.9471 18.9583 31.97 14.0117 31.97C9.065 31.97 5.04 27.9471 5.04 23Z" fill="#8B191B"/>
<path d="M15.9367 22.9941C15.9367 24.0605 15.0733 24.9255 14.0058 24.9255C12.9383 24.9255 12.075 24.0605 12.075 22.9941C12.075 21.9276 12.9442 21.0626 14.0058 21.0626C15.0675 21.0626 15.9367 21.9276 15.9367 22.9941Z" fill="#8B191B"/>
<path d="M11.9817 22.9941C11.9817 24.1138 12.8917 25.0203 14.0117 25.0203C15.1317 25.0203 16.0417 24.1079 16.0417 22.9941C16.0417 21.8802 15.1317 20.9678 14.0117 20.9678C12.8917 20.9678 11.9817 21.8743 11.9817 22.9941ZM12.1742 22.9941C12.1742 21.981 12.9967 21.1633 14.0058 21.1633C15.015 21.1633 15.8375 21.9869 15.8375 22.9941C15.8375 24.0013 15.015 24.8307 14.0058 24.8307C12.9967 24.8307 12.1742 24.0072 12.1742 22.9941Z" fill="#D1C294"/>
</g>
<path d="M35.752 33V12.04H42.568C44.0187 12.04 45.3093 12.232 46.44 12.616C47.5707 12.9787 48.4667 13.608 49.128 14.504C49.7893 15.4 50.12 16.5947 50.12 18.088C50.12 19.5387 49.7893 20.7333 49.128 21.672C48.4667 22.6107 47.5707 23.3147 46.44 23.784C45.3093 24.2533 44.0187 24.488 42.568 24.488H38.952V33H35.752ZM38.952 21.896H42.184C43.7413 21.896 44.9253 21.5867 45.736 20.968C46.5467 20.328 46.952 19.368 46.952 18.088C46.952 16.808 46.5467 15.912 45.736 15.4C44.9253 14.8667 43.7413 14.6 42.184 14.6H38.952V21.896ZM47.24 33L41.96 23.624L44.36 21.8L50.824 33H47.24ZM54.3458 33V16.328H57.5458V33H54.3458ZM60.3438 33L66.1678 16.328H69.8478L75.6718 33H72.3118L69.5598 24.2C69.2824 23.304 69.0158 22.408 68.7598 21.512C68.5251 20.5947 68.2691 19.6987 67.9918 18.824H67.8638C67.6078 19.72 67.3518 20.616 67.0958 21.512C66.8611 22.408 66.6158 23.304 66.3598 24.2L63.5758 33H60.3438ZM63.7998 28.712V26.216H72.1838V28.712H63.7998ZM78.4083 33V16.328H81.6083V30.376H88.9683V33H78.4083ZM93.359 33V18.984H88.239V16.328H101.647V18.984H96.559V33H93.359ZM111.256 33.384C109.698 33.384 108.312 33.032 107.096 32.328C105.901 31.624 104.962 30.6213 104.28 29.32C103.618 27.9973 103.288 26.4293 103.288 24.616C103.288 22.7813 103.618 21.224 104.28 19.944C104.962 18.664 105.901 17.6827 107.096 17C108.312 16.296 109.698 15.944 111.256 15.944C112.792 15.944 114.157 16.296 115.352 17C116.546 17.6827 117.474 18.664 118.135 19.944C118.818 21.224 119.16 22.7813 119.16 24.616C119.16 26.4293 118.818 27.9973 118.135 29.32C117.474 30.6213 116.546 31.624 115.352 32.328C114.157 33.032 112.792 33.384 111.256 33.384ZM111.256 30.728C112.194 30.728 113.005 30.4827 113.688 29.992C114.37 29.48 114.904 28.776 115.288 27.88C115.672 26.9627 115.864 25.8747 115.864 24.616C115.864 22.7387 115.448 21.2773 114.616 20.232C113.784 19.1653 112.664 18.632 111.256 18.632C109.848 18.632 108.717 19.1653 107.864 20.232C107.01 21.2773 106.584 22.7387 106.584 24.616C106.584 25.8533 106.776 26.9307 107.16 27.848C107.544 28.7653 108.077 29.48 108.76 29.992C109.464 30.4827 110.296 30.728 111.256 30.728Z" fill="#2E2D29"/>
<line x1="131.375" y1="10.5" x2="131.375" y2="35.5" stroke="black" stroke-width="0.75"/>
<path d="M151.432 33.384C149.747 33.384 148.253 32.936 146.952 32.04C145.651 31.1227 144.627 29.8427 143.88 28.2C143.133 26.5573 142.76 24.616 142.76 22.376C142.76 20.1573 143.133 18.2373 143.88 16.616C144.627 14.9733 145.651 13.7147 146.952 12.84C148.253 11.9653 149.747 11.528 151.432 11.528C153.117 11.528 154.611 11.9653 155.912 12.84C157.235 13.7147 158.269 14.9733 159.016 16.616C159.763 18.2373 160.136 20.1573 160.136 22.376C160.136 24.616 159.763 26.5573 159.016 28.2C158.269 29.8427 157.235 31.1227 155.912 32.04C154.611 32.936 153.117 33.384 151.432 33.384ZM151.432 32.04C152.861 32.04 154.109 31.6453 155.176 30.856C156.243 30.0453 157.075 28.9253 157.672 27.496C158.269 26.0453 158.568 24.3387 158.568 22.376C158.568 20.4347 158.269 18.76 157.672 17.352C157.075 15.9227 156.243 14.824 155.176 14.056C154.109 13.2667 152.861 12.872 151.432 12.872C150.003 12.872 148.755 13.2667 147.688 14.056C146.621 14.824 145.789 15.9227 145.192 17.352C144.595 18.76 144.296 20.4347 144.296 22.376C144.296 24.3387 144.595 26.0453 145.192 27.496C145.789 28.9253 146.621 30.0453 147.688 30.856C148.755 31.6453 150.003 32.04 151.432 32.04ZM164.819 39.944V17.64H166.035L166.163 19.56H166.259C167.006 18.9627 167.816 18.4293 168.691 17.96C169.587 17.4907 170.515 17.256 171.475 17.256C172.84 17.256 173.971 17.576 174.867 18.216C175.784 18.856 176.467 19.7733 176.915 20.968C177.384 22.1413 177.619 23.5173 177.619 25.096C177.619 26.824 177.299 28.3067 176.659 29.544C176.04 30.7813 175.219 31.7307 174.195 32.392C173.171 33.0533 172.051 33.384 170.835 33.384C170.11 33.384 169.352 33.224 168.563 32.904C167.795 32.5627 167.016 32.0933 166.227 31.496V34.344V39.944H164.819ZM170.771 32.136C171.816 32.136 172.734 31.8373 173.523 31.24C174.334 30.6427 174.963 29.8213 175.411 28.776C175.88 27.7093 176.115 26.4827 176.115 25.096C176.115 23.8373 175.955 22.7173 175.635 21.736C175.315 20.7333 174.792 19.944 174.067 19.368C173.363 18.792 172.424 18.504 171.251 18.504C170.483 18.504 169.683 18.7173 168.851 19.144C168.04 19.5707 167.166 20.2 166.227 21.032V30.152C167.102 30.8773 167.934 31.3893 168.723 31.688C169.512 31.9867 170.195 32.136 170.771 32.136ZM188.049 33.384C186.727 33.384 185.532 33.064 184.465 32.424C183.399 31.784 182.545 30.8667 181.905 29.672C181.265 28.456 180.945 27.016 180.945 25.352C180.945 23.6667 181.265 22.2267 181.905 21.032C182.545 19.816 183.367 18.888 184.369 18.248C185.393 17.5867 186.481 17.256 187.633 17.256C188.849 17.256 189.895 17.5333 190.769 18.088C191.665 18.6427 192.348 19.4533 192.817 20.52C193.287 21.5653 193.521 22.8453 193.521 24.36C193.521 24.5307 193.511 24.7227 193.489 24.936C193.489 25.128 193.468 25.3307 193.425 25.544H181.809V24.328H192.177C192.177 22.3653 191.772 20.904 190.961 19.944C190.151 18.9627 189.052 18.472 187.665 18.472C186.812 18.472 185.98 18.7173 185.169 19.208C184.359 19.6987 183.687 20.456 183.153 21.48C182.641 22.4827 182.385 23.752 182.385 25.288C182.385 26.696 182.641 27.9227 183.153 28.968C183.665 29.992 184.359 30.7813 185.233 31.336C186.108 31.8693 187.089 32.136 188.177 32.136C189.009 32.136 189.767 32.0293 190.449 31.816C191.153 31.5813 191.772 31.272 192.305 30.888L192.881 31.88C192.284 32.2853 191.612 32.6373 190.865 32.936C190.119 33.2347 189.18 33.384 188.049 33.384ZM197.694 33V17.64H198.91L199.038 20.008H199.134C199.923 19.2187 200.734 18.568 201.566 18.056C202.419 17.5227 203.369 17.256 204.414 17.256C206.014 17.256 207.187 17.7467 207.934 18.728C208.681 19.688 209.054 21.16 209.054 23.144V33H207.646V23.336C207.646 21.6933 207.369 20.488 206.814 19.72C206.281 18.9307 205.385 18.536 204.126 18.536C203.209 18.536 202.377 18.7813 201.63 19.272C200.905 19.7413 200.062 20.456 199.102 21.416V33H197.694ZM218.444 33L225.868 11.912H227.34L234.764 33H233.228L229.004 20.584C228.577 19.3253 228.172 18.12 227.788 16.968C227.404 15.7947 227.03 14.568 226.668 13.288H226.54C226.177 14.568 225.804 15.7947 225.42 16.968C225.036 18.12 224.63 19.3253 224.204 20.584L219.916 33H218.444ZM221.836 25.768V24.52H231.276V25.768H221.836ZM243.671 33.384C242.349 33.384 241.154 33.0747 240.087 32.456C239.042 31.816 238.21 30.8987 237.591 29.704C236.994 28.488 236.695 27.0373 236.695 25.352C236.695 23.6453 237.015 22.184 237.655 20.968C238.317 19.752 239.181 18.8347 240.247 18.216C241.314 17.576 242.466 17.256 243.703 17.256C244.77 17.256 245.655 17.4373 246.359 17.8C247.063 18.1413 247.682 18.5893 248.215 19.144L247.447 20.008C246.999 19.5387 246.466 19.176 245.847 18.92C245.229 18.6427 244.525 18.504 243.735 18.504C242.69 18.504 241.751 18.792 240.919 19.368C240.087 19.944 239.415 20.744 238.903 21.768C238.413 22.792 238.167 23.9867 238.167 25.352C238.167 26.696 238.391 27.88 238.839 28.904C239.309 29.928 239.959 30.728 240.791 31.304C241.623 31.8587 242.605 32.136 243.735 32.136C244.567 32.136 245.335 31.9867 246.039 31.688C246.743 31.368 247.341 30.952 247.831 30.44L248.567 31.304C247.927 31.9227 247.202 32.424 246.391 32.808C245.581 33.192 244.674 33.384 243.671 33.384ZM257.515 33.384C256.192 33.384 254.998 33.0747 253.931 32.456C252.886 31.816 252.054 30.8987 251.435 29.704C250.838 28.488 250.539 27.0373 250.539 25.352C250.539 23.6453 250.859 22.184 251.499 20.968C252.16 19.752 253.024 18.8347 254.091 18.216C255.158 17.576 256.31 17.256 257.547 17.256C258.614 17.256 259.499 17.4373 260.203 17.8C260.907 18.1413 261.526 18.5893 262.059 19.144L261.291 20.008C260.843 19.5387 260.31 19.176 259.691 18.92C259.072 18.6427 258.368 18.504 257.579 18.504C256.534 18.504 255.595 18.792 254.763 19.368C253.931 19.944 253.259 20.744 252.747 21.768C252.256 22.792 252.011 23.9867 252.011 25.352C252.011 26.696 252.235 27.88 252.683 28.904C253.152 29.928 253.803 30.728 254.635 31.304C255.467 31.8587 256.448 32.136 257.579 32.136C258.411 32.136 259.179 31.9867 259.883 31.688C260.587 31.368 261.184 30.952 261.675 30.44L262.411 31.304C261.771 31.9227 261.046 32.424 260.235 32.808C259.424 33.192 258.518 33.384 257.515 33.384ZM271.487 33.384C270.164 33.384 268.969 33.064 267.903 32.424C266.836 31.784 265.983 30.8667 265.343 29.672C264.703 28.456 264.383 27.016 264.383 25.352C264.383 23.6667 264.703 22.2267 265.343 21.032C265.983 19.816 266.804 18.888 267.807 18.248C268.831 17.5867 269.919 17.256 271.071 17.256C272.287 17.256 273.332 17.5333 274.207 18.088C275.103 18.6427 275.785 19.4533 276.255 20.52C276.724 21.5653 276.959 22.8453 276.959 24.36C276.959 24.5307 276.948 24.7227 276.927 24.936C276.927 25.128 276.905 25.3307 276.863 25.544H265.247V24.328H275.615C275.615 22.3653 275.209 20.904 274.399 19.944C273.588 18.9627 272.489 18.472 271.103 18.472C270.249 18.472 269.417 18.7173 268.607 19.208C267.796 19.6987 267.124 20.456 266.591 21.48C266.079 22.4827 265.823 23.752 265.823 25.288C265.823 26.696 266.079 27.9227 266.591 28.968C267.103 29.992 267.796 30.7813 268.671 31.336C269.545 31.8693 270.527 32.136 271.615 32.136C272.447 32.136 273.204 32.0293 273.887 31.816C274.591 31.5813 275.209 31.272 275.743 30.888L276.319 31.88C275.721 32.2853 275.049 32.6373 274.303 32.936C273.556 33.2347 272.617 33.384 271.487 33.384ZM284.844 33.384C283.649 33.384 282.572 33.192 281.612 32.808C280.673 32.424 279.873 31.9013 279.212 31.24L279.98 30.344C280.62 30.8987 281.313 31.3467 282.06 31.688C282.828 32.008 283.788 32.168 284.94 32.168C286.134 32.168 287.041 31.8693 287.66 31.272C288.278 30.6533 288.588 29.9387 288.588 29.128C288.588 28.488 288.396 27.9653 288.012 27.56C287.649 27.1333 287.18 26.7813 286.604 26.504C286.028 26.2053 285.441 25.9493 284.844 25.736C284.054 25.4587 283.297 25.1493 282.572 24.808C281.846 24.4453 281.249 23.9973 280.78 23.464C280.31 22.9093 280.076 22.2053 280.076 21.352C280.076 20.2213 280.502 19.2613 281.356 18.472C282.209 17.6613 283.425 17.256 285.004 17.256C285.878 17.256 286.689 17.4053 287.436 17.704C288.204 18.0027 288.865 18.3867 289.42 18.856L288.652 19.72C288.14 19.3573 287.596 19.0587 287.02 18.824C286.444 18.5893 285.761 18.472 284.972 18.472C283.777 18.472 282.892 18.76 282.316 19.336C281.761 19.912 281.484 20.552 281.484 21.256C281.484 21.832 281.644 22.312 281.964 22.696C282.305 23.0587 282.742 23.368 283.276 23.624C283.809 23.88 284.385 24.1253 285.004 24.36C285.814 24.68 286.604 25.0107 287.372 25.352C288.161 25.6933 288.801 26.152 289.292 26.728C289.782 27.2827 290.028 28.0613 290.028 29.064C290.028 29.832 289.825 30.5467 289.42 31.208C289.036 31.848 288.449 32.3707 287.66 32.776C286.892 33.1813 285.953 33.384 284.844 33.384ZM297.812 33.384C296.618 33.384 295.54 33.192 294.58 32.808C293.642 32.424 292.842 31.9013 292.18 31.24L292.948 30.344C293.588 30.8987 294.282 31.3467 295.028 31.688C295.796 32.008 296.756 32.168 297.908 32.168C299.103 32.168 300.01 31.8693 300.628 31.272C301.247 30.6533 301.556 29.9387 301.556 29.128C301.556 28.488 301.364 27.9653 300.98 27.56C300.618 27.1333 300.148 26.7813 299.572 26.504C298.996 26.2053 298.41 25.9493 297.812 25.736C297.023 25.4587 296.266 25.1493 295.54 24.808C294.815 24.4453 294.218 23.9973 293.748 23.464C293.279 22.9093 293.044 22.2053 293.044 21.352C293.044 20.2213 293.471 19.2613 294.324 18.472C295.178 17.6613 296.394 17.256 297.972 17.256C298.847 17.256 299.658 17.4053 300.404 17.704C301.172 18.0027 301.834 18.3867 302.388 18.856L301.62 19.72C301.108 19.3573 300.564 19.0587 299.988 18.824C299.412 18.5893 298.73 18.472 297.94 18.472C296.746 18.472 295.86 18.76 295.284 19.336C294.73 19.912 294.452 20.552 294.452 21.256C294.452 21.832 294.612 22.312 294.932 22.696C295.274 23.0587 295.711 23.368 296.244 23.624C296.778 23.88 297.354 24.1253 297.972 24.36C298.783 24.68 299.572 25.0107 300.34 25.352C301.13 25.6933 301.77 26.152 302.26 26.728C302.751 27.2827 302.996 28.0613 302.996 29.064C302.996 29.832 302.794 30.5467 302.388 31.208C302.004 31.848 301.418 32.3707 300.628 32.776C299.86 33.1813 298.922 33.384 297.812 33.384Z" fill="black"/>
<defs>
<clipPath id="clip0_68_1022">
<rect width="28" height="28" fill="white" transform="translate(0 9)"/>
</clipPath>
</defs>
</svg>
