<svg width="225" height="46" viewBox="0 0 225 46" fill="none" xmlns="http://www.w3.org/2000/svg">
<g clip-path="url(#clip0_68_995)">
<path d="M14 9C6.2825 9 0 15.2802 0 23C0 30.7198 6.2825 37 14 37C21.7175 37 28 30.7198 28 23C28 15.2802 21.7233 9 14 9ZM14 35.5011C7.09333 35.5011 1.49333 29.9022 1.49333 23C1.49333 16.0978 7.09333 10.4989 14 10.4989C20.9067 10.4989 26.5067 16.0978 26.5067 23C26.5067 29.9022 20.9067 35.5011 14 35.5011Z" fill="#8B191B"/>
<path d="M26.985 23C26.985 30.1689 21.1692 35.981 13.9942 35.981C6.81918 35.981 1.01501 30.1689 1.01501 23C1.01501 15.8311 6.82502 10.0131 14 10.0131C21.175 10.0131 26.9908 15.8252 26.9908 23H26.985Z" fill="#D1C294"/>
<path d="M24.045 28.7943C23.3217 27.8582 22.9075 26.7088 22.9075 25.518C22.9075 25.2158 22.9308 24.9077 22.9892 24.5996C22.9892 24.5996 22.9892 24.5878 22.9892 24.5819C23.2575 23.0711 24.1617 21.7854 25.4217 20.9915C23.9692 20.6775 22.6742 19.777 21.8983 18.438C21.42 17.6085 21.1867 16.6902 21.1867 15.7719C21.1867 15.2209 21.2742 14.6699 21.4433 14.1426C20.1308 14.8298 18.5675 14.9602 17.115 14.4388C15.6742 13.9115 14.56 12.7977 14 11.4172C13.44 12.7977 12.3258 13.9115 10.8733 14.4388C9.4325 14.9602 7.86917 14.8298 6.5625 14.1426C6.73167 14.6699 6.81917 15.215 6.81917 15.7719C6.81917 16.6961 6.58 17.6263 6.10167 18.4617C5.33167 19.7888 4.03667 20.6893 2.58417 20.9974C3.8325 21.7795 4.73083 23.0533 5.01083 24.5463C5.01083 24.5463 5.02833 24.647 5.02833 24.653C5.075 24.9433 5.09833 25.2336 5.09833 25.518C5.09833 26.7147 4.69 27.8641 3.96667 28.8002C5.43667 28.5988 6.95333 29.0076 8.12583 29.9852L8.16667 30.0207C8.16667 30.0207 8.19583 30.0444 8.2075 30.0563C9.33917 31.0398 9.98083 32.4439 10.0392 33.9014C11.0367 32.7994 12.4658 32.1299 14.0117 32.1299C15.5458 32.1299 16.9692 32.7935 17.9667 33.9014C18.025 32.4143 18.69 30.9864 19.8742 29.997C21.0525 29.0135 22.5692 28.6047 24.0392 28.8002L24.045 28.7943Z" fill="#8B191B"/>
<path d="M22.5517 23C22.5517 27.716 18.725 31.5374 14.0117 31.5374C9.29835 31.5374 5.47168 27.716 5.47168 23C5.47168 18.2839 9.29835 14.4566 14.0117 14.4566C18.725 14.4566 22.5517 18.278 22.5517 23Z" fill="#D0C192"/>
<path d="M4.65499 25.2692C4.65499 25.204 4.64332 25.1388 4.63749 25.0737C3.44749 26.2704 2.67749 27.6805 2.67749 28.6877C2.67749 28.8536 2.70665 29.0017 2.74749 29.1439C3.87332 28.273 4.64915 26.697 4.64915 25.2692H4.65499ZM3.03915 29.6001C3.75082 30.3525 5.64082 30.5362 7.53665 30.0385C6.29415 29.2387 4.40999 29.055 3.03915 29.6001ZM20.4692 30.0445C22.365 30.5421 24.255 30.3585 24.9667 29.606C23.5958 29.061 21.7117 29.2446 20.4692 30.0445ZM23.3567 25.2632C23.3567 26.6911 24.1325 28.273 25.2583 29.1439C25.2992 29.0017 25.3283 28.8536 25.3283 28.6877C25.3283 27.6805 24.5642 26.2704 23.3683 25.0737C23.3683 25.1388 23.3508 25.1981 23.3508 25.2632H23.3567ZM16.87 13.8405C16.3508 11.909 15.2483 10.3212 14.2625 10.0783C14.4667 11.5832 15.575 13.171 16.87 13.8405ZM11.1417 13.8405C12.4367 13.1651 13.545 11.5832 13.7492 10.0783C12.7633 10.3212 11.6608 11.909 11.1417 13.8405ZM8.15499 31.3301C8.15499 33.0127 8.64499 34.4939 9.39749 34.9975C9.45582 34.7131 9.51415 34.4228 9.51415 34.1147C9.51415 32.8468 9.00082 31.496 8.20165 30.6191C8.18415 30.8561 8.15499 31.0931 8.15499 31.3301ZM23.52 24.2383C25.3458 23.391 26.6992 22.058 26.7575 21.039C25.3167 21.4952 23.9575 22.8519 23.52 24.2383ZM10.3425 14.1249C8.74415 13.0229 6.91832 12.5548 5.99665 13.0229C7.09332 14.0123 8.89582 14.4626 10.3425 14.1249ZM6.28832 15.9852C6.28832 15.0373 6.04332 14.0775 5.58249 13.3487C5.31999 13.6983 5.17999 14.2256 5.17999 14.8714C5.17999 15.7541 5.43665 16.8206 5.90332 17.8456C6.13665 17.2827 6.28249 16.6547 6.28249 15.9911L6.28832 15.9852ZM9.89332 35.1752C10.9083 35.2996 12.4483 34.2213 13.5917 32.5861C12.1392 32.7639 10.5992 33.8422 9.89332 35.1752ZM26.6642 20.5472C26.2675 19.5993 24.5058 18.7698 22.505 18.598C23.3917 19.7711 25.1533 20.6065 26.6642 20.5472ZM1.24832 21.039C1.30665 22.058 2.65999 23.391 4.48582 24.2383C4.04832 22.8519 2.68915 21.4952 1.24832 21.039ZM18.4858 34.1088C18.4858 34.4169 18.5442 34.7072 18.6025 34.9975C19.355 34.4939 19.845 33.0127 19.845 31.3301C19.845 31.099 19.8158 30.8561 19.7983 30.6191C18.9933 31.496 18.4858 32.8468 18.4858 34.1088ZM22.0092 13.0229C21.0817 12.5607 19.2558 13.0229 17.6633 14.1249C19.0983 14.4507 20.9183 13.9886 22.0092 13.0229ZM5.50665 18.598C3.50582 18.7757 1.74415 19.5993 1.34749 20.5472C2.85832 20.6065 4.61415 19.7711 5.50665 18.598ZM14.4142 32.5861C15.5575 34.2273 17.0975 35.3056 18.1125 35.1811C17.4125 33.8422 15.8667 32.7698 14.4142 32.5861ZM22.1025 17.8396C22.5692 16.8147 22.8258 15.7482 22.8258 14.8714C22.8258 14.2256 22.6858 13.6983 22.4233 13.3487C21.9683 14.0834 21.7175 15.0373 21.7175 15.9852C21.7175 16.6488 21.8633 17.2768 22.1025 17.8396Z" fill="#0A515D"/>
<path d="M10.5875 19.2142C9.2225 18.8113 7.8575 18.6395 6.63834 18.675C7.21 19.7889 8.05 20.9264 9.1 21.9514L13.1017 22.4787L10.5817 19.2142H10.5875Z" fill="#0A515D"/>
<path d="M8.95999 22.295C7.64749 22.8697 6.49249 23.6162 5.57666 24.4279C6.73166 24.9137 8.10249 25.2455 9.56083 25.3521L12.985 23.1778L8.95999 22.295Z" fill="#0A515D"/>
<path d="M9.67165 25.7017C9.03582 26.9814 8.62748 28.3026 8.45248 29.5113C9.64832 29.138 10.92 28.51 12.11 27.645L13.335 23.7762L9.66582 25.6958L9.67165 25.7017Z" fill="#0A515D"/>
<path d="M19.0458 21.9218C20.0608 20.9501 20.8775 19.8659 21.4491 18.8054C20.1833 18.7402 18.7541 18.9061 17.3308 19.3149L14.8983 22.4728L19.0458 21.9218Z" fill="#0A515D"/>
<path d="M17.1617 18.9476C17.3133 17.5494 17.2433 16.1926 16.9983 15.0136C15.995 15.7779 15.0091 16.8088 14.1808 18.0352L14.3558 22.0225L17.1617 18.9476Z" fill="#0A515D"/>
<path d="M13.8192 17.8871C13.0317 16.708 12.1042 15.7127 11.1533 14.9603C10.8792 16.1867 10.7858 17.6027 10.9375 19.0661L13.6558 22.0284L13.825 17.893L13.8192 17.8871Z" fill="#0A515D"/>
<path d="M22.4117 24.5701C21.4783 23.711 20.2825 22.9171 18.9233 22.3128L15.0267 23.1719L18.5675 25.4173C19.9733 25.3225 21.2975 25.0145 22.4175 24.5701H22.4117Z" fill="#0A515D"/>
<path d="M15.9308 27.7635C17.0741 28.6048 18.2933 29.2269 19.4425 29.6061C19.2966 28.4863 18.4391 26.2645 18.1825 25.6128L14.665 23.7821L15.9308 27.7635Z" fill="#0A515D"/>
<path d="M12.4192 27.8701C12.7517 29.2565 13.2883 30.5244 13.93 31.5612C14.6125 30.5007 15.1842 29.1973 15.54 27.7635L14 24.025L12.4192 27.8701Z" fill="#0A515D"/>
<path d="M4.64917 23C4.64917 28.1604 8.84917 32.361 14.0117 32.361C19.1742 32.361 23.3742 28.1604 23.3742 23C23.3742 17.8396 19.1742 13.639 14.0117 13.639C8.84917 13.639 4.64917 17.8396 4.64917 23ZM5.04 23C5.04 18.0529 9.065 14.0301 14.0117 14.0301C18.9583 14.0301 22.9833 18.0529 22.9833 23C22.9833 27.9471 18.9583 31.97 14.0117 31.97C9.065 31.97 5.04 27.9471 5.04 23Z" fill="#8B191B"/>
<path d="M15.9367 22.9941C15.9367 24.0605 15.0733 24.9255 14.0058 24.9255C12.9383 24.9255 12.075 24.0605 12.075 22.9941C12.075 21.9276 12.9442 21.0626 14.0058 21.0626C15.0675 21.0626 15.9367 21.9276 15.9367 22.9941Z" fill="#8B191B"/>
<path d="M11.9817 22.9941C11.9817 24.1138 12.8917 25.0203 14.0117 25.0203C15.1317 25.0203 16.0417 24.1079 16.0417 22.9941C16.0417 21.8802 15.1317 20.9678 14.0117 20.9678C12.8917 20.9678 11.9817 21.8743 11.9817 22.9941ZM12.1742 22.9941C12.1742 21.981 12.9967 21.1633 14.0058 21.1633C15.015 21.1633 15.8375 21.9869 15.8375 22.9941C15.8375 24.0013 15.015 24.8307 14.0058 24.8307C12.9967 24.8307 12.1742 24.0072 12.1742 22.9941Z" fill="#D1C294"/>
</g>
<path d="M35.752 33V12.04H42.568C44.0187 12.04 45.3093 12.232 46.44 12.616C47.5707 12.9787 48.4667 13.608 49.128 14.504C49.7893 15.4 50.12 16.5947 50.12 18.088C50.12 19.5387 49.7893 20.7333 49.128 21.672C48.4667 22.6107 47.5707 23.3147 46.44 23.784C45.3093 24.2533 44.0187 24.488 42.568 24.488H38.952V33H35.752ZM38.952 21.896H42.184C43.7413 21.896 44.9253 21.5867 45.736 20.968C46.5467 20.328 46.952 19.368 46.952 18.088C46.952 16.808 46.5467 15.912 45.736 15.4C44.9253 14.8667 43.7413 14.6 42.184 14.6H38.952V21.896ZM47.24 33L41.96 23.624L44.36 21.8L50.824 33H47.24ZM54.3458 33V16.328H57.5458V33H54.3458ZM60.3438 33L66.1678 16.328H69.8478L75.6718 33H72.3118L69.5598 24.2C69.2824 23.304 69.0158 22.408 68.7598 21.512C68.5251 20.5947 68.2691 19.6987 67.9918 18.824H67.8638C67.6078 19.72 67.3518 20.616 67.0958 21.512C66.8611 22.408 66.6158 23.304 66.3598 24.2L63.5758 33H60.3438ZM63.7998 28.712V26.216H72.1838V28.712H63.7998ZM78.4083 33V16.328H81.6083V30.376H88.9683V33H78.4083ZM93.359 33V18.984H88.239V16.328H101.647V18.984H96.559V33H93.359ZM111.256 33.384C109.698 33.384 108.312 33.032 107.096 32.328C105.901 31.624 104.962 30.6213 104.28 29.32C103.618 27.9973 103.288 26.4293 103.288 24.616C103.288 22.7813 103.618 21.224 104.28 19.944C104.962 18.664 105.901 17.6827 107.096 17C108.312 16.296 109.698 15.944 111.256 15.944C112.792 15.944 114.157 16.296 115.352 17C116.546 17.6827 117.474 18.664 118.135 19.944C118.818 21.224 119.16 22.7813 119.16 24.616C119.16 26.4293 118.818 27.9973 118.135 29.32C117.474 30.6213 116.546 31.624 115.352 32.328C114.157 33.032 112.792 33.384 111.256 33.384ZM111.256 30.728C112.194 30.728 113.005 30.4827 113.688 29.992C114.37 29.48 114.904 28.776 115.288 27.88C115.672 26.9627 115.864 25.8747 115.864 24.616C115.864 22.7387 115.448 21.2773 114.616 20.232C113.784 19.1653 112.664 18.632 111.256 18.632C109.848 18.632 108.717 19.1653 107.864 20.232C107.01 21.2773 106.584 22.7387 106.584 24.616C106.584 25.8533 106.776 26.9307 107.16 27.848C107.544 28.7653 108.077 29.48 108.76 29.992C109.464 30.4827 110.296 30.728 111.256 30.728Z" fill="#2E2D29"/>
<line x1="131.375" y1="8" x2="131.375" y2="38" stroke="black" stroke-width="0.75"/>
<path d="M151.432 33.384C149.747 33.384 148.253 32.936 146.952 32.04C145.651 31.1227 144.627 29.8427 143.88 28.2C143.133 26.5573 142.76 24.616 142.76 22.376C142.76 20.1573 143.133 18.2373 143.88 16.616C144.627 14.9733 145.651 13.7147 146.952 12.84C148.253 11.9653 149.747 11.528 151.432 11.528C153.117 11.528 154.611 11.9653 155.912 12.84C157.235 13.7147 158.269 14.9733 159.016 16.616C159.763 18.2373 160.136 20.1573 160.136 22.376C160.136 24.616 159.763 26.5573 159.016 28.2C158.269 29.8427 157.235 31.1227 155.912 32.04C154.611 32.936 153.117 33.384 151.432 33.384ZM151.432 32.04C152.861 32.04 154.109 31.6453 155.176 30.856C156.243 30.0453 157.075 28.9253 157.672 27.496C158.269 26.0453 158.568 24.3387 158.568 22.376C158.568 20.4347 158.269 18.76 157.672 17.352C157.075 15.9227 156.243 14.824 155.176 14.056C154.109 13.2667 152.861 12.872 151.432 12.872C150.003 12.872 148.755 13.2667 147.688 14.056C146.621 14.824 145.789 15.9227 145.192 17.352C144.595 18.76 144.296 20.4347 144.296 22.376C144.296 24.3387 144.595 26.0453 145.192 27.496C145.789 28.9253 146.621 30.0453 147.688 30.856C148.755 31.6453 150.003 32.04 151.432 32.04ZM164.979 33V11.912H171.027C172.414 11.912 173.619 12.0933 174.643 12.456C175.688 12.8187 176.499 13.416 177.075 14.248C177.651 15.0587 177.939 16.136 177.939 17.48C177.939 18.76 177.651 19.8373 177.075 20.712C176.499 21.5653 175.688 22.216 174.643 22.664C173.619 23.0907 172.414 23.304 171.027 23.304H166.451V33H164.979ZM166.451 22.088H170.643C172.52 22.088 173.95 21.7147 174.931 20.968C175.934 20.2 176.435 19.0373 176.435 17.48C176.435 15.9013 175.934 14.792 174.931 14.152C173.95 13.4907 172.52 13.16 170.643 13.16H166.451V22.088ZM176.659 33L170.675 22.888L172.083 22.472L178.355 33H176.659ZM189.873 33.384C188.145 33.384 186.609 32.936 185.265 32.04C183.943 31.144 182.908 29.8747 182.161 28.232C181.415 26.5893 181.041 24.648 181.041 22.408C181.041 20.744 181.255 19.24 181.681 17.896C182.108 16.552 182.716 15.4107 183.505 14.472C184.316 13.512 185.265 12.7867 186.353 12.296C187.463 11.784 188.689 11.528 190.033 11.528C191.249 11.528 192.327 11.7733 193.265 12.264C194.225 12.7547 194.983 13.352 195.537 14.056L194.673 14.952C194.097 14.2907 193.415 13.7787 192.625 13.416C191.857 13.0533 191.004 12.872 190.065 12.872C188.529 12.872 187.196 13.2667 186.065 14.056C184.956 14.824 184.092 15.9227 183.473 17.352C182.876 18.76 182.577 20.4453 182.577 22.408C182.577 24.3493 182.876 26.0453 183.473 27.496C184.071 28.9467 184.924 30.0667 186.033 30.856C187.143 31.6453 188.455 32.04 189.969 32.04C191.057 32.04 192.028 31.8373 192.881 31.432C193.735 31.0267 194.545 30.3973 195.313 29.544L196.113 30.376C195.324 31.2933 194.428 32.0293 193.425 32.584C192.444 33.1173 191.26 33.384 189.873 33.384ZM200.448 33V11.912H201.92V33H200.448ZM208.135 33V11.912H213.031C215.186 11.912 216.967 12.3387 218.375 13.192C219.805 14.0453 220.861 15.2613 221.543 16.84C222.247 18.4187 222.599 20.264 222.599 22.376C222.599 24.5093 222.247 26.376 221.543 27.976C220.861 29.5547 219.815 30.792 218.407 31.688C216.999 32.5627 215.218 33 213.063 33H208.135ZM209.607 31.752H212.871C214.77 31.752 216.317 31.3573 217.511 30.568C218.727 29.7573 219.623 28.648 220.199 27.24C220.775 25.832 221.063 24.2107 221.063 22.376C221.063 20.5413 220.775 18.9307 220.199 17.544C219.623 16.1573 218.727 15.08 217.511 14.312C216.317 13.544 214.77 13.16 212.871 13.16H209.607V31.752Z" fill="black"/>
<defs>
<clipPath id="clip0_68_995">
<rect width="28" height="28" fill="white" transform="translate(0 9)"/>
</clipPath>
</defs>
</svg>
